<mxfile host="www.draw.io" modified="2019-12-09T06:17:05.925Z" agent="Mozilla/5.0 (X11; Linux x86_64) AppleWebKit/537.36 (KHTML, like Gecko) Chrome/78.0.3904.87 Safari/537.36" etag="l2ZsBFH6sEL2z_9d0HaW" version="12.3.5" type="github" pages="1">
  <diagram id="Wyt8yrSQ3RSMpkzc1AXA" name="Page-1">
    <mxGraphModel dx="2048" dy="4323" grid="1" gridSize="10" guides="1" tooltips="1" connect="1" arrows="1" fold="1" page="1" pageScale="1" pageWidth="4681" pageHeight="3300" math="0" shadow="0">
      <root>
        <mxCell id="0"/>
        <mxCell id="1" value="Inhalte" style="" parent="0"/>
        <mxCell id="2e9VviOoSvJhzy74QU0r-17" value="" style="rounded=0;html=1;fillColor=none;whiteSpace=wrap;" parent="1" vertex="1">
          <mxGeometry x="13" y="65" width="140" height="795" as="geometry"/>
        </mxCell>
        <mxCell id="YNsSI02lV_WkkaifhmP2-2" value="Coding Class" style="rhombus;html=1;whiteSpace=wrap;" parent="1" vertex="1">
          <mxGeometry x="20" y="320" width="120" height="60" as="geometry"/>
        </mxCell>
        <mxCell id="2e9VviOoSvJhzy74QU0r-11" style="edgeStyle=none;rounded=0;comic=0;jumpStyle=none;orthogonalLoop=1;jettySize=auto;html=1;exitX=0.275;exitY=0.967;exitDx=0;exitDy=0;entryX=0.767;entryY=0.1;entryDx=0;entryDy=0;entryPerimeter=0;strokeColor=#000000;exitPerimeter=0;" parent="1" source="YNsSI02lV_WkkaifhmP2-5" target="2e9VviOoSvJhzy74QU0r-6" edge="1">
          <mxGeometry relative="1" as="geometry"/>
        </mxCell>
        <mxCell id="YNsSI02lV_WkkaifhmP2-5" value="Vielfache" style="ellipse;html=1;fillColor=#ffff88;strokeColor=#36393d;whiteSpace=wrap;" parent="1" vertex="1">
          <mxGeometry x="430" y="120" width="120" height="60" as="geometry"/>
        </mxCell>
        <mxCell id="YNsSI02lV_WkkaifhmP2-6" value="Meilenstein" style="shape=card;html=1;whiteSpace=wrap;" parent="1" vertex="1">
          <mxGeometry x="46" y="150" width="65" height="90" as="geometry"/>
        </mxCell>
        <mxCell id="YNsSI02lV_WkkaifhmP2-10" value="Name" style="rounded=1;html=1;whiteSpace=wrap;" parent="1" vertex="1">
          <mxGeometry x="25.5" y="677.5" width="117" height="20" as="geometry"/>
        </mxCell>
        <mxCell id="YNsSI02lV_WkkaifhmP2-11" value="Vorlesung" style="rounded=0;html=1;whiteSpace=wrap;" parent="1" vertex="1">
          <mxGeometry x="20" y="90" width="120" height="50" as="geometry"/>
        </mxCell>
        <mxCell id="YNsSI02lV_WkkaifhmP2-14" value="DONE" style="rounded=1;html=1;fillColor=#cdeb8b;strokeColor=#36393d;whiteSpace=wrap;" parent="1" vertex="1">
          <mxGeometry x="24" y="760" width="120" height="20" as="geometry"/>
        </mxCell>
        <mxCell id="YNsSI02lV_WkkaifhmP2-15" value="TO BE DONE" style="rounded=1;html=1;fillColor=#cce5ff;strokeColor=#36393d;whiteSpace=wrap;" parent="1" vertex="1">
          <mxGeometry x="24" y="790" width="120" height="20" as="geometry"/>
        </mxCell>
        <mxCell id="YNsSI02lV_WkkaifhmP2-16" value="PROOFREADING" style="rounded=1;html=1;fillColor=#ffff88;strokeColor=#36393d;whiteSpace=wrap;" parent="1" vertex="1">
          <mxGeometry x="22.5" y="820" width="120" height="20" as="geometry"/>
        </mxCell>
        <mxCell id="YNsSI02lV_WkkaifhmP2-20" style="edgeStyle=orthogonalEdgeStyle;rounded=0;orthogonalLoop=1;jettySize=auto;html=1;exitX=0.5;exitY=1;exitDx=0;exitDy=0;entryX=0.5;entryY=0;entryDx=0;entryDy=0;jumpStyle=arc;comic=0;" parent="1" source="YNsSI02lV_WkkaifhmP2-17" target="YNsSI02lV_WkkaifhmP2-18" edge="1">
          <mxGeometry relative="1" as="geometry"/>
        </mxCell>
        <mxCell id="YNsSI02lV_WkkaifhmP2-23" style="edgeStyle=orthogonalEdgeStyle;rounded=0;orthogonalLoop=1;jettySize=auto;html=1;exitX=1;exitY=0.5;exitDx=0;exitDy=0;entryX=0;entryY=0.5;entryDx=0;entryDy=0;" parent="1" source="YNsSI02lV_WkkaifhmP2-17" target="YNsSI02lV_WkkaifhmP2-21" edge="1">
          <mxGeometry relative="1" as="geometry"/>
        </mxCell>
        <mxCell id="YNsSI02lV_WkkaifhmP2-17" value="Ein erster Algorithmus" style="rounded=0;html=1;fillColor=#cdeb8b;strokeColor=#36393d;whiteSpace=wrap;" parent="1" vertex="1">
          <mxGeometry x="200" y="40" width="120" height="50" as="geometry"/>
        </mxCell>
        <mxCell id="2e9VviOoSvJhzy74QU0r-10" style="rounded=0;comic=0;jumpStyle=none;orthogonalLoop=1;jettySize=auto;html=1;exitX=0.5;exitY=1;exitDx=0;exitDy=0;strokeColor=#000000;" parent="1" source="YNsSI02lV_WkkaifhmP2-18" target="2e9VviOoSvJhzy74QU0r-6" edge="1">
          <mxGeometry relative="1" as="geometry"/>
        </mxCell>
        <mxCell id="2e9VviOoSvJhzy74QU0r-15" style="edgeStyle=none;rounded=0;comic=0;jumpStyle=none;orthogonalLoop=1;jettySize=auto;html=1;exitX=1;exitY=0.5;exitDx=0;exitDy=0;entryX=0;entryY=0.5;entryDx=0;entryDy=0;strokeColor=#000000;fillColor=#f8cecc;" parent="1" source="YNsSI02lV_WkkaifhmP2-18" target="YNsSI02lV_WkkaifhmP2-5" edge="1">
          <mxGeometry relative="1" as="geometry"/>
        </mxCell>
        <mxCell id="YNsSI02lV_WkkaifhmP2-18" value="Ein erster Algorithmus" style="ellipse;html=1;fillColor=#ffff88;strokeColor=#36393d;whiteSpace=wrap;" parent="1" vertex="1">
          <mxGeometry x="200" y="120" width="120" height="60" as="geometry"/>
        </mxCell>
        <mxCell id="B_I8aT1JAoUhAAaeeT8g-25" style="edgeStyle=none;rounded=0;orthogonalLoop=1;jettySize=auto;html=1;exitX=0.5;exitY=1;exitDx=0;exitDy=0;" parent="1" source="YNsSI02lV_WkkaifhmP2-21" target="YNsSI02lV_WkkaifhmP2-5" edge="1">
          <mxGeometry relative="1" as="geometry"/>
        </mxCell>
        <mxCell id="B_I8aT1JAoUhAAaeeT8g-27" value="" style="edgeStyle=none;rounded=0;orthogonalLoop=1;jettySize=auto;html=1;" parent="1" source="YNsSI02lV_WkkaifhmP2-21" target="B_I8aT1JAoUhAAaeeT8g-26" edge="1">
          <mxGeometry relative="1" as="geometry"/>
        </mxCell>
        <mxCell id="YNsSI02lV_WkkaifhmP2-21" value="Algorithmen" style="rounded=0;html=1;fillColor=#cdeb8b;strokeColor=#36393d;whiteSpace=wrap;" parent="1" vertex="1">
          <mxGeometry x="360" y="40" width="120" height="50" as="geometry"/>
        </mxCell>
        <mxCell id="B_I8aT1JAoUhAAaeeT8g-62" value="" style="edgeStyle=none;rounded=0;orthogonalLoop=1;jettySize=auto;html=1;startArrow=classic;startFill=1;" parent="1" source="2e9VviOoSvJhzy74QU0r-6" target="B_I8aT1JAoUhAAaeeT8g-4" edge="1">
          <mxGeometry relative="1" as="geometry">
            <mxPoint x="400" y="260" as="targetPoint"/>
          </mxGeometry>
        </mxCell>
        <mxCell id="wF4mP8w9-cqMa2zVFERf-13" style="edgeStyle=none;rounded=0;orthogonalLoop=1;jettySize=auto;html=1;" parent="1" source="2e9VviOoSvJhzy74QU0r-6" target="wF4mP8w9-cqMa2zVFERf-1" edge="1">
          <mxGeometry relative="1" as="geometry"/>
        </mxCell>
        <mxCell id="2e9VviOoSvJhzy74QU0r-6" value="Ausgabe in C++" style="ellipse;html=1;fillColor=#cdeb8b;strokeColor=#36393d;whiteSpace=wrap;" parent="1" vertex="1">
          <mxGeometry x="200" y="230" width="120" height="60" as="geometry"/>
        </mxCell>
        <mxCell id="2e9VviOoSvJhzy74QU0r-12" value="Courseware" style="ellipse;html=1;whiteSpace=wrap;" parent="1" vertex="1">
          <mxGeometry x="20" y="250" width="120" height="60" as="geometry"/>
        </mxCell>
        <mxCell id="2e9VviOoSvJhzy74QU0r-18" value="&lt;b&gt;&lt;font style=&quot;font-size: 14px&quot;&gt;Legende&lt;/font&gt;&lt;/b&gt;" style="text;html=1;strokeColor=none;fillColor=none;align=center;verticalAlign=middle;rounded=0;whiteSpace=wrap;" parent="1" vertex="1">
          <mxGeometry x="50" y="40" width="60" height="20" as="geometry"/>
        </mxCell>
        <mxCell id="2e9VviOoSvJhzy74QU0r-19" value="&lt;b&gt;&lt;font style=&quot;font-size: 14px&quot;&gt;ZustÃ¤nde&lt;/font&gt;&lt;/b&gt;" style="text;html=1;strokeColor=none;fillColor=none;align=center;verticalAlign=middle;rounded=0;whiteSpace=wrap;" parent="1" vertex="1">
          <mxGeometry x="52.5" y="725" width="60" height="20" as="geometry"/>
        </mxCell>
        <mxCell id="2e9VviOoSvJhzy74QU0r-21" value="&lt;b&gt;&lt;font style=&quot;font-size: 14px&quot;&gt;Assigned To&lt;/font&gt;&lt;/b&gt;" style="text;html=1;strokeColor=none;fillColor=none;align=center;verticalAlign=middle;rounded=0;whiteSpace=wrap;" parent="1" vertex="1">
          <mxGeometry x="24" y="650" width="120" height="20" as="geometry"/>
        </mxCell>
        <mxCell id="2e9VviOoSvJhzy74QU0r-28" value="??? = Irgendwer" style="text;html=1;strokeColor=none;fillColor=none;align=center;verticalAlign=middle;rounded=0;whiteSpace=wrap;" parent="1" vertex="1">
          <mxGeometry x="24" y="700" width="117" height="20" as="geometry"/>
        </mxCell>
        <mxCell id="Tgc2R-9lb7ekBUgRPGqR-1" value="&lt;b&gt;Wichtigkeit&lt;/b&gt;" style="text;html=1;strokeColor=none;fillColor=none;align=center;verticalAlign=middle;rounded=0;whiteSpace=wrap;" parent="1" vertex="1">
          <mxGeometry x="50" y="385" width="60" height="20" as="geometry"/>
        </mxCell>
        <mxCell id="oYj94LS83K9F-aLHHSQ7-1" value="Pflicht" style="shape=callout;html=1;perimeter=calloutPerimeter;fillColor=#cdeb8b;strokeColor=#36393d;whiteSpace=wrap;" parent="1" vertex="1">
          <mxGeometry x="18.5" y="420" width="120" height="60" as="geometry"/>
        </mxCell>
        <mxCell id="oYj94LS83K9F-aLHHSQ7-2" value="Beispiel" style="shape=callout;html=1;perimeter=calloutPerimeter;fillColor=#ffff88;strokeColor=#36393d;whiteSpace=wrap;" parent="1" vertex="1">
          <mxGeometry x="19" y="500" width="120" height="60" as="geometry"/>
        </mxCell>
        <mxCell id="oYj94LS83K9F-aLHHSQ7-5" value="Nice to know" style="shape=callout;html=1;perimeter=calloutPerimeter;fillColor=#cce5ff;strokeColor=#36393d;whiteSpace=wrap;" parent="1" vertex="1">
          <mxGeometry x="20" y="570" width="121" height="63" as="geometry"/>
        </mxCell>
        <mxCell id="oYj94LS83K9F-aLHHSQ7-6" value="&lt;b&gt;Inhaltsart&lt;/b&gt;" style="text;html=1;strokeColor=none;fillColor=none;align=center;verticalAlign=middle;rounded=0;whiteSpace=wrap;" parent="1" vertex="1">
          <mxGeometry x="58.5" y="65" width="40" height="20" as="geometry"/>
        </mxCell>
        <mxCell id="wF4mP8w9-cqMa2zVFERf-14" style="edgeStyle=none;rounded=0;orthogonalLoop=1;jettySize=auto;html=1;" parent="1" source="B_I8aT1JAoUhAAaeeT8g-4" target="wF4mP8w9-cqMa2zVFERf-1" edge="1">
          <mxGeometry relative="1" as="geometry"/>
        </mxCell>
        <mxCell id="B_I8aT1JAoUhAAaeeT8g-4" value="Eingabe in C++" style="ellipse;html=1;fillColor=#cdeb8b;strokeColor=#36393d;whiteSpace=wrap;" parent="1" vertex="1">
          <mxGeometry x="430" y="230" width="120" height="60" as="geometry"/>
        </mxCell>
        <mxCell id="B_I8aT1JAoUhAAaeeT8g-13" style="edgeStyle=none;rounded=0;orthogonalLoop=1;jettySize=auto;html=1;" parent="1" source="YNsSI02lV_WkkaifhmP2-5" target="B_I8aT1JAoUhAAaeeT8g-4" edge="1">
          <mxGeometry relative="1" as="geometry">
            <mxPoint x="420" y="182" as="sourcePoint"/>
            <mxPoint x="420" y="230" as="targetPoint"/>
          </mxGeometry>
        </mxCell>
        <mxCell id="B_I8aT1JAoUhAAaeeT8g-14" style="rounded=0;orthogonalLoop=1;jettySize=auto;html=1;" parent="1" source="YNsSI02lV_WkkaifhmP2-18" target="B_I8aT1JAoUhAAaeeT8g-4" edge="1">
          <mxGeometry relative="1" as="geometry">
            <mxPoint x="260" y="180" as="sourcePoint"/>
            <mxPoint x="377.57359312880726" y="238.78679656440363" as="targetPoint"/>
          </mxGeometry>
        </mxCell>
        <mxCell id="B_I8aT1JAoUhAAaeeT8g-22" style="edgeStyle=none;rounded=0;orthogonalLoop=1;jettySize=auto;html=1;exitX=0.5;exitY=1;exitDx=0;exitDy=0;" parent="1" source="2e9VviOoSvJhzy74QU0r-17" target="2e9VviOoSvJhzy74QU0r-17" edge="1">
          <mxGeometry relative="1" as="geometry"/>
        </mxCell>
        <mxCell id="B_I8aT1JAoUhAAaeeT8g-30" style="edgeStyle=none;rounded=0;orthogonalLoop=1;jettySize=auto;html=1;" parent="1" source="B_I8aT1JAoUhAAaeeT8g-26" target="YNsSI02lV_WkkaifhmP2-5" edge="1">
          <mxGeometry relative="1" as="geometry"/>
        </mxCell>
        <mxCell id="B_I8aT1JAoUhAAaeeT8g-33" value="" style="edgeStyle=none;rounded=0;orthogonalLoop=1;jettySize=auto;html=1;" parent="1" source="B_I8aT1JAoUhAAaeeT8g-26" target="B_I8aT1JAoUhAAaeeT8g-32" edge="1">
          <mxGeometry relative="1" as="geometry"/>
        </mxCell>
        <mxCell id="B_I8aT1JAoUhAAaeeT8g-26" value="Imperative Programme" style="rounded=0;html=1;fillColor=#cdeb8b;strokeColor=#36393d;whiteSpace=wrap;" parent="1" vertex="1">
          <mxGeometry x="520" y="40" width="120" height="50" as="geometry"/>
        </mxCell>
        <mxCell id="B_I8aT1JAoUhAAaeeT8g-35" value="" style="edgeStyle=none;rounded=0;orthogonalLoop=1;jettySize=auto;html=1;" parent="1" source="B_I8aT1JAoUhAAaeeT8g-32" target="B_I8aT1JAoUhAAaeeT8g-34" edge="1">
          <mxGeometry relative="1" as="geometry"/>
        </mxCell>
        <mxCell id="B_I8aT1JAoUhAAaeeT8g-75" value="" style="edgeStyle=none;rounded=0;orthogonalLoop=1;jettySize=auto;html=1;startArrow=none;startFill=0;" parent="1" source="B_I8aT1JAoUhAAaeeT8g-32" target="B_I8aT1JAoUhAAaeeT8g-74" edge="1">
          <mxGeometry relative="1" as="geometry"/>
        </mxCell>
        <mxCell id="B_I8aT1JAoUhAAaeeT8g-32" value="openFrameworks" style="rounded=0;html=1;fillColor=#cdeb8b;strokeColor=#36393d;whiteSpace=wrap;" parent="1" vertex="1">
          <mxGeometry x="680" y="40" width="120" height="50" as="geometry"/>
        </mxCell>
        <mxCell id="B_I8aT1JAoUhAAaeeT8g-38" value="" style="edgeStyle=none;rounded=0;orthogonalLoop=1;jettySize=auto;html=1;" parent="1" source="B_I8aT1JAoUhAAaeeT8g-34" target="B_I8aT1JAoUhAAaeeT8g-73" edge="1">
          <mxGeometry relative="1" as="geometry">
            <mxPoint x="740" y="220" as="targetPoint"/>
          </mxGeometry>
        </mxCell>
        <mxCell id="B_I8aT1JAoUhAAaeeT8g-34" value="EinfÃ¼hrung in openFrameworks" style="ellipse;html=1;fillColor=#cdeb8b;strokeColor=#36393d;whiteSpace=wrap;" parent="1" vertex="1">
          <mxGeometry x="680" y="120" width="120" height="60" as="geometry"/>
        </mxCell>
        <mxCell id="B_I8aT1JAoUhAAaeeT8g-59" value="" style="edgeStyle=none;rounded=0;orthogonalLoop=1;jettySize=auto;html=1;startArrow=classic;startFill=1;" parent="1" source="B_I8aT1JAoUhAAaeeT8g-40" edge="1">
          <mxGeometry relative="1" as="geometry">
            <mxPoint x="740" y="280" as="targetPoint"/>
          </mxGeometry>
        </mxCell>
        <mxCell id="B_I8aT1JAoUhAAaeeT8g-40" value="Operationen" style="ellipse;html=1;fillColor=#cdeb8b;strokeColor=#36393d;whiteSpace=wrap;" parent="1" vertex="1">
          <mxGeometry x="680" y="335" width="120" height="60" as="geometry"/>
        </mxCell>
        <mxCell id="B_I8aT1JAoUhAAaeeT8g-67" value="" style="edgeStyle=none;rounded=0;orthogonalLoop=1;jettySize=auto;html=1;startArrow=classic;startFill=1;" parent="1" source="B_I8aT1JAoUhAAaeeT8g-54" target="B_I8aT1JAoUhAAaeeT8g-66" edge="1">
          <mxGeometry relative="1" as="geometry"/>
        </mxCell>
        <mxCell id="B_I8aT1JAoUhAAaeeT8g-125" value="" style="edgeStyle=orthogonalEdgeStyle;rounded=0;orthogonalLoop=1;jettySize=auto;html=1;startArrow=none;startFill=0;" parent="1" source="B_I8aT1JAoUhAAaeeT8g-54" target="B_I8aT1JAoUhAAaeeT8g-118" edge="1">
          <mxGeometry relative="1" as="geometry"/>
        </mxCell>
        <mxCell id="B_I8aT1JAoUhAAaeeT8g-54" value="Typen" style="rounded=0;html=1;fillColor=#cdeb8b;strokeColor=#36393d;whiteSpace=wrap;" parent="1" vertex="1">
          <mxGeometry x="990" y="40" width="120" height="50" as="geometry"/>
        </mxCell>
        <mxCell id="B_I8aT1JAoUhAAaeeT8g-97" value="" style="edgeStyle=orthogonalEdgeStyle;rounded=0;orthogonalLoop=1;jettySize=auto;html=1;startArrow=none;startFill=0;entryX=0;entryY=0.5;entryDx=0;entryDy=0;" parent="1" source="B_I8aT1JAoUhAAaeeT8g-66" target="B_I8aT1JAoUhAAaeeT8g-91" edge="1">
          <mxGeometry relative="1" as="geometry">
            <Array as="points">
              <mxPoint x="1050" y="225"/>
            </Array>
          </mxGeometry>
        </mxCell>
        <mxCell id="B_I8aT1JAoUhAAaeeT8g-99" style="edgeStyle=orthogonalEdgeStyle;rounded=0;orthogonalLoop=1;jettySize=auto;html=1;entryX=0;entryY=0.5;entryDx=0;entryDy=0;startArrow=none;startFill=0;" parent="1" source="B_I8aT1JAoUhAAaeeT8g-66" target="B_I8aT1JAoUhAAaeeT8g-94" edge="1">
          <mxGeometry relative="1" as="geometry"/>
        </mxCell>
        <mxCell id="B_I8aT1JAoUhAAaeeT8g-100" style="edgeStyle=orthogonalEdgeStyle;rounded=0;orthogonalLoop=1;jettySize=auto;html=1;entryX=0;entryY=0.5;entryDx=0;entryDy=0;startArrow=none;startFill=0;" parent="1" source="B_I8aT1JAoUhAAaeeT8g-66" target="B_I8aT1JAoUhAAaeeT8g-93" edge="1">
          <mxGeometry relative="1" as="geometry"/>
        </mxCell>
        <mxCell id="In2b0w2_5TZYF9G1gsUI-15" style="edgeStyle=orthogonalEdgeStyle;rounded=0;orthogonalLoop=1;jettySize=auto;html=1;" edge="1" parent="1" source="B_I8aT1JAoUhAAaeeT8g-66" target="IUjpNbBkHvmJUEdH-6QP-1">
          <mxGeometry relative="1" as="geometry">
            <Array as="points">
              <mxPoint x="1050" y="350"/>
              <mxPoint x="985" y="350"/>
            </Array>
          </mxGeometry>
        </mxCell>
        <mxCell id="B_I8aT1JAoUhAAaeeT8g-66" value="Typen" style="ellipse;html=1;fillColor=#cdeb8b;strokeColor=#36393d;whiteSpace=wrap;" parent="1" vertex="1">
          <mxGeometry x="990" y="120" width="120" height="60" as="geometry"/>
        </mxCell>
        <mxCell id="B_I8aT1JAoUhAAaeeT8g-73" value="Spielereien in&amp;nbsp; openFrameworks" style="ellipse;html=1;fillColor=#ffff88;strokeColor=#36393d;whiteSpace=wrap;" parent="1" vertex="1">
          <mxGeometry x="680" y="220" width="120" height="60" as="geometry"/>
        </mxCell>
        <mxCell id="B_I8aT1JAoUhAAaeeT8g-76" value="" style="edgeStyle=none;rounded=0;orthogonalLoop=1;jettySize=auto;html=1;startArrow=none;startFill=0;" parent="1" source="B_I8aT1JAoUhAAaeeT8g-74" target="B_I8aT1JAoUhAAaeeT8g-54" edge="1">
          <mxGeometry relative="1" as="geometry"/>
        </mxCell>
        <mxCell id="B_I8aT1JAoUhAAaeeT8g-83" value="" style="edgeStyle=none;rounded=0;orthogonalLoop=1;jettySize=auto;html=1;startArrow=none;startFill=0;" parent="1" source="B_I8aT1JAoUhAAaeeT8g-74" target="B_I8aT1JAoUhAAaeeT8g-82" edge="1">
          <mxGeometry relative="1" as="geometry"/>
        </mxCell>
        <mxCell id="B_I8aT1JAoUhAAaeeT8g-74" value="Daten" style="rounded=0;html=1;fillColor=#cdeb8b;strokeColor=#36393d;whiteSpace=wrap;" parent="1" vertex="1">
          <mxGeometry x="835" y="40" width="120" height="50" as="geometry"/>
        </mxCell>
        <mxCell id="B_I8aT1JAoUhAAaeeT8g-108" value="" style="edgeStyle=orthogonalEdgeStyle;rounded=0;orthogonalLoop=1;jettySize=auto;html=1;startArrow=none;startFill=0;" parent="1" source="B_I8aT1JAoUhAAaeeT8g-82" target="B_I8aT1JAoUhAAaeeT8g-107" edge="1">
          <mxGeometry relative="1" as="geometry"/>
        </mxCell>
        <mxCell id="B_I8aT1JAoUhAAaeeT8g-82" value="Bits, Bytes und BinÃ¤rzahlen" style="ellipse;html=1;fillColor=#cdeb8b;strokeColor=#36393d;whiteSpace=wrap;" parent="1" vertex="1">
          <mxGeometry x="830" y="120" width="130" height="60" as="geometry"/>
        </mxCell>
        <mxCell id="B_I8aT1JAoUhAAaeeT8g-91" value="int" style="ellipse;html=1;fillColor=#cdeb8b;strokeColor=#36393d;whiteSpace=wrap;" parent="1" vertex="1">
          <mxGeometry x="1070" y="210" width="100" height="30" as="geometry"/>
        </mxCell>
        <mxCell id="In2b0w2_5TZYF9G1gsUI-4" style="edgeStyle=orthogonalEdgeStyle;rounded=0;orthogonalLoop=1;jettySize=auto;html=1;" edge="1" parent="1" source="B_I8aT1JAoUhAAaeeT8g-92" target="In2b0w2_5TZYF9G1gsUI-3">
          <mxGeometry relative="1" as="geometry"/>
        </mxCell>
        <mxCell id="B_I8aT1JAoUhAAaeeT8g-92" value="float" style="ellipse;html=1;fillColor=#cdeb8b;strokeColor=#36393d;whiteSpace=wrap;" parent="1" vertex="1">
          <mxGeometry x="1075" y="252.5" width="90" height="30" as="geometry"/>
        </mxCell>
        <mxCell id="B_I8aT1JAoUhAAaeeT8g-93" value="char und string" style="ellipse;html=1;fillColor=#cdeb8b;strokeColor=#36393d;whiteSpace=wrap;" parent="1" vertex="1">
          <mxGeometry x="1070" y="335" width="100" height="30" as="geometry"/>
        </mxCell>
        <mxCell id="B_I8aT1JAoUhAAaeeT8g-94" value="bool" style="ellipse;html=1;fillColor=#cdeb8b;strokeColor=#36393d;whiteSpace=wrap;" parent="1" vertex="1">
          <mxGeometry x="1070" y="295" width="100" height="30" as="geometry"/>
        </mxCell>
        <mxCell id="B_I8aT1JAoUhAAaeeT8g-98" value="" style="edgeStyle=orthogonalEdgeStyle;rounded=0;orthogonalLoop=1;jettySize=auto;html=1;startArrow=none;startFill=0;" parent="1" source="B_I8aT1JAoUhAAaeeT8g-66" target="B_I8aT1JAoUhAAaeeT8g-92" edge="1">
          <mxGeometry relative="1" as="geometry">
            <mxPoint x="1060" y="190" as="sourcePoint"/>
            <mxPoint x="1080" y="235" as="targetPoint"/>
            <Array as="points">
              <mxPoint x="1050" y="265"/>
            </Array>
          </mxGeometry>
        </mxCell>
        <mxCell id="B_I8aT1JAoUhAAaeeT8g-107" value="Rechnen im Kreis" style="ellipse;html=1;fillColor=#cdeb8b;strokeColor=#36393d;whiteSpace=wrap;" parent="1" vertex="1">
          <mxGeometry x="830" y="220" width="130" height="60" as="geometry"/>
        </mxCell>
        <mxCell id="B_I8aT1JAoUhAAaeeT8g-109" value="Algoriten-&lt;br&gt;darstellung" style="ellipse;html=1;fillColor=#cdeb8b;strokeColor=#36393d;whiteSpace=wrap;" parent="1" vertex="1">
          <mxGeometry x="1445" y="120" width="120" height="60" as="geometry"/>
        </mxCell>
        <mxCell id="B_I8aT1JAoUhAAaeeT8g-123" value="" style="edgeStyle=orthogonalEdgeStyle;rounded=0;orthogonalLoop=1;jettySize=auto;html=1;startArrow=none;startFill=0;" parent="1" source="B_I8aT1JAoUhAAaeeT8g-118" target="B_I8aT1JAoUhAAaeeT8g-122" edge="1">
          <mxGeometry relative="1" as="geometry"/>
        </mxCell>
        <mxCell id="B_I8aT1JAoUhAAaeeT8g-147" value="" style="edgeStyle=orthogonalEdgeStyle;rounded=0;orthogonalLoop=1;jettySize=auto;html=1;startArrow=none;startFill=0;" parent="1" source="B_I8aT1JAoUhAAaeeT8g-118" target="B_I8aT1JAoUhAAaeeT8g-137" edge="1">
          <mxGeometry relative="1" as="geometry"/>
        </mxCell>
        <mxCell id="B_I8aT1JAoUhAAaeeT8g-118" value="Variablen" style="rounded=0;html=1;fillColor=#cdeb8b;strokeColor=#36393d;whiteSpace=wrap;" parent="1" vertex="1">
          <mxGeometry x="1270" y="40" width="120" height="50" as="geometry"/>
        </mxCell>
        <mxCell id="B_I8aT1JAoUhAAaeeT8g-129" value="" style="edgeStyle=orthogonalEdgeStyle;rounded=0;orthogonalLoop=1;jettySize=auto;html=1;startArrow=none;startFill=0;" parent="1" source="B_I8aT1JAoUhAAaeeT8g-122" target="B_I8aT1JAoUhAAaeeT8g-128" edge="1">
          <mxGeometry relative="1" as="geometry"/>
        </mxCell>
        <mxCell id="B_I8aT1JAoUhAAaeeT8g-122" value="Der abprallende Ball" style="ellipse;html=1;fillColor=#ffff88;strokeColor=#36393d;whiteSpace=wrap;" parent="1" vertex="1">
          <mxGeometry x="1270" y="115" width="120" height="60" as="geometry"/>
        </mxCell>
        <mxCell id="B_I8aT1JAoUhAAaeeT8g-128" value="lokal und global" style="ellipse;html=1;fillColor=#cdeb8b;strokeColor=#36393d;whiteSpace=wrap;" parent="1" vertex="1">
          <mxGeometry x="1270" y="205" width="120" height="60" as="geometry"/>
        </mxCell>
        <mxCell id="B_I8aT1JAoUhAAaeeT8g-145" value="" style="edgeStyle=orthogonalEdgeStyle;rounded=0;orthogonalLoop=1;jettySize=auto;html=1;startArrow=none;startFill=0;" parent="1" source="B_I8aT1JAoUhAAaeeT8g-134" target="B_I8aT1JAoUhAAaeeT8g-141" edge="1">
          <mxGeometry relative="1" as="geometry"/>
        </mxCell>
        <mxCell id="B_I8aT1JAoUhAAaeeT8g-139" value="" style="rounded=0;orthogonalLoop=1;jettySize=auto;html=1;startArrow=none;startFill=0;" parent="1" source="B_I8aT1JAoUhAAaeeT8g-137" target="B_I8aT1JAoUhAAaeeT8g-109" edge="1">
          <mxGeometry relative="1" as="geometry"/>
        </mxCell>
        <mxCell id="B_I8aT1JAoUhAAaeeT8g-141" value="Boolesche AusdrÃ¼cke" style="ellipse;html=1;fillColor=#cdeb8b;strokeColor=#36393d;whiteSpace=wrap;" parent="1" vertex="1">
          <mxGeometry x="1790" y="120" width="120" height="50" as="geometry"/>
        </mxCell>
        <mxCell id="wF4mP8w9-cqMa2zVFERf-21" style="edgeStyle=none;rounded=0;orthogonalLoop=1;jettySize=auto;html=1;" parent="1" source="B_I8aT1JAoUhAAaeeT8g-137" target="wF4mP8w9-cqMa2zVFERf-19" edge="1">
          <mxGeometry relative="1" as="geometry"/>
        </mxCell>
        <mxCell id="B_I8aT1JAoUhAAaeeT8g-137" value="Entscheidungen" style="rounded=0;html=1;fillColor=#cdeb8b;strokeColor=#36393d;whiteSpace=wrap;" parent="1" vertex="1">
          <mxGeometry x="1530" y="40" width="120" height="50" as="geometry"/>
        </mxCell>
        <mxCell id="wF4mP8w9-cqMa2zVFERf-18" value="" style="edgeStyle=none;rounded=0;orthogonalLoop=1;jettySize=auto;html=1;" parent="1" source="B_I8aT1JAoUhAAaeeT8g-134" target="wF4mP8w9-cqMa2zVFERf-17" edge="1">
          <mxGeometry relative="1" as="geometry"/>
        </mxCell>
        <mxCell id="B_I8aT1JAoUhAAaeeT8g-134" value="Boolesche AusdrÃ¼cke" style="rounded=0;html=1;fillColor=#cdeb8b;strokeColor=#36393d;whiteSpace=wrap;" parent="1" vertex="1">
          <mxGeometry x="1790" y="40" width="120" height="50" as="geometry"/>
        </mxCell>
        <mxCell id="B_I8aT1JAoUhAAaeeT8g-148" value="" style="edgeStyle=orthogonalEdgeStyle;rounded=0;orthogonalLoop=1;jettySize=auto;html=1;startArrow=none;startFill=0;" parent="1" source="B_I8aT1JAoUhAAaeeT8g-137" target="B_I8aT1JAoUhAAaeeT8g-134" edge="1">
          <mxGeometry relative="1" as="geometry">
            <mxPoint x="1590" y="65.33333333333337" as="sourcePoint"/>
            <mxPoint x="1902.5" y="125" as="targetPoint"/>
          </mxGeometry>
        </mxCell>
        <mxCell id="wF4mP8w9-cqMa2zVFERf-1" value="Experimente&lt;br&gt;mit der &lt;br&gt;Konsole" style="rhombus;html=1;fillColor=#cdeb8b;strokeColor=#36393d;whiteSpace=wrap;" parent="1" vertex="1">
          <mxGeometry x="300" y="342.5" width="150" height="75" as="geometry"/>
        </mxCell>
        <mxCell id="wF4mP8w9-cqMa2zVFERf-16" style="edgeStyle=none;rounded=0;orthogonalLoop=1;jettySize=auto;html=1;exitX=0.5;exitY=1;exitDx=0;exitDy=0;" parent="1" source="wF4mP8w9-cqMa2zVFERf-1" target="wF4mP8w9-cqMa2zVFERf-1" edge="1">
          <mxGeometry relative="1" as="geometry"/>
        </mxCell>
        <mxCell id="wF4mP8w9-cqMa2zVFERf-28" value="" style="edgeStyle=none;rounded=0;orthogonalLoop=1;jettySize=auto;html=1;" parent="1" source="wF4mP8w9-cqMa2zVFERf-17" target="wF4mP8w9-cqMa2zVFERf-29" edge="1">
          <mxGeometry relative="1" as="geometry">
            <mxPoint x="2020" y="119.99999999999977" as="targetPoint"/>
          </mxGeometry>
        </mxCell>
        <mxCell id="wF4mP8w9-cqMa2zVFERf-17" value="ZÃ¤hlschleife" style="rounded=0;html=1;fillColor=#cdeb8b;strokeColor=#36393d;whiteSpace=wrap;" parent="1" vertex="1">
          <mxGeometry x="1960" y="40" width="120" height="50" as="geometry"/>
        </mxCell>
        <mxCell id="wF4mP8w9-cqMa2zVFERf-19" value="EntscheidungsbÃ¤ume" style="ellipse;html=1;fillColor=#cdeb8b;strokeColor=#36393d;whiteSpace=wrap;" parent="1" vertex="1">
          <mxGeometry x="1620" y="120" width="120" height="60" as="geometry"/>
        </mxCell>
        <mxCell id="wF4mP8w9-cqMa2zVFERf-35" value="" style="edgeStyle=none;rounded=0;orthogonalLoop=1;jettySize=auto;html=1;" parent="1" source="wF4mP8w9-cqMa2zVFERf-29" target="wF4mP8w9-cqMa2zVFERf-34" edge="1">
          <mxGeometry relative="1" as="geometry"/>
        </mxCell>
        <mxCell id="wF4mP8w9-cqMa2zVFERf-29" value="Konzentrische&lt;br&gt;Kreise" style="ellipse;html=1;fillColor=#ffff88;strokeColor=#36393d;whiteSpace=wrap;" parent="1" vertex="1">
          <mxGeometry x="1960" y="120" width="120" height="50" as="geometry"/>
        </mxCell>
        <mxCell id="wF4mP8w9-cqMa2zVFERf-34" value="Geschachtelte Schleifen" style="ellipse;html=1;fillColor=#cdeb8b;strokeColor=#36393d;whiteSpace=wrap;" parent="1" vertex="1">
          <mxGeometry x="1960" y="210" width="120" height="50" as="geometry"/>
        </mxCell>
        <mxCell id="wF4mP8w9-cqMa2zVFERf-39" value="" style="edgeStyle=none;rounded=0;orthogonalLoop=1;jettySize=auto;html=1;" parent="1" target="wF4mP8w9-cqMa2zVFERf-40" edge="1">
          <mxGeometry relative="1" as="geometry">
            <mxPoint x="2080" y="64.99999999999977" as="sourcePoint"/>
          </mxGeometry>
        </mxCell>
        <mxCell id="wF4mP8w9-cqMa2zVFERf-43" value="" style="edgeStyle=none;rounded=0;orthogonalLoop=1;jettySize=auto;html=1;" parent="1" source="wF4mP8w9-cqMa2zVFERf-40" target="wF4mP8w9-cqMa2zVFERf-41" edge="1">
          <mxGeometry relative="1" as="geometry">
            <mxPoint x="2200" y="169.99999999999977" as="targetPoint"/>
          </mxGeometry>
        </mxCell>
        <mxCell id="wF4mP8w9-cqMa2zVFERf-52" value="" style="edgeStyle=none;rounded=0;orthogonalLoop=1;jettySize=auto;html=1;" parent="1" source="wF4mP8w9-cqMa2zVFERf-40" target="wF4mP8w9-cqMa2zVFERf-51" edge="1">
          <mxGeometry relative="1" as="geometry"/>
        </mxCell>
        <mxCell id="wF4mP8w9-cqMa2zVFERf-40" value="Tracetabellen" style="rounded=0;html=1;fillColor=#cdeb8b;strokeColor=#36393d;whiteSpace=wrap;" parent="1" vertex="1">
          <mxGeometry x="2140" y="40" width="120" height="50" as="geometry"/>
        </mxCell>
        <mxCell id="wF4mP8w9-cqMa2zVFERf-41" value="Tracing" style="ellipse;html=1;fillColor=#cdeb8b;strokeColor=#36393d;whiteSpace=wrap;" parent="1" vertex="1">
          <mxGeometry x="2140" y="120" width="120" height="50" as="geometry"/>
        </mxCell>
        <mxCell id="wF4mP8w9-cqMa2zVFERf-55" value="" style="edgeStyle=none;rounded=0;orthogonalLoop=1;jettySize=auto;html=1;entryX=0.5;entryY=0;entryDx=0;entryDy=0;" parent="1" source="wF4mP8w9-cqMa2zVFERf-51" target="wF4mP8w9-cqMa2zVFERf-53" edge="1">
          <mxGeometry relative="1" as="geometry">
            <mxPoint x="2380" y="169.99999999999977" as="targetPoint"/>
          </mxGeometry>
        </mxCell>
        <mxCell id="wF4mP8w9-cqMa2zVFERf-59" value="" style="edgeStyle=none;rounded=0;orthogonalLoop=1;jettySize=auto;html=1;" parent="1" source="wF4mP8w9-cqMa2zVFERf-51" target="wF4mP8w9-cqMa2zVFERf-57" edge="1">
          <mxGeometry relative="1" as="geometry">
            <mxPoint x="2380" y="169.99999999999977" as="targetPoint"/>
          </mxGeometry>
        </mxCell>
        <mxCell id="In2b0w2_5TZYF9G1gsUI-110" value="" style="edgeStyle=none;rounded=0;orthogonalLoop=1;jettySize=auto;html=1;" edge="1" parent="1" source="wF4mP8w9-cqMa2zVFERf-51" target="i1R9sLjK4HXDBMoAynH--2">
          <mxGeometry relative="1" as="geometry">
            <mxPoint x="2520" y="65" as="targetPoint"/>
          </mxGeometry>
        </mxCell>
        <mxCell id="wF4mP8w9-cqMa2zVFERf-51" value="While-Schleifen" style="rounded=0;html=1;fillColor=#cdeb8b;strokeColor=#36393d;whiteSpace=wrap;" parent="1" vertex="1">
          <mxGeometry x="2320" y="40" width="120" height="50" as="geometry"/>
        </mxCell>
        <mxCell id="wF4mP8w9-cqMa2zVFERf-53" value="Eingabekontrolle" style="ellipse;html=1;fillColor=#ffff88;strokeColor=#36393d;whiteSpace=wrap;" parent="1" vertex="1">
          <mxGeometry x="2320" y="170" width="120" height="50" as="geometry"/>
        </mxCell>
        <mxCell id="wF4mP8w9-cqMa2zVFERf-72" value="" style="edgeStyle=none;rounded=0;orthogonalLoop=1;jettySize=auto;html=1;" parent="1" source="wF4mP8w9-cqMa2zVFERf-57" target="wF4mP8w9-cqMa2zVFERf-66" edge="1">
          <mxGeometry relative="1" as="geometry">
            <mxPoint x="2570" y="249.99999999999977" as="targetPoint"/>
          </mxGeometry>
        </mxCell>
        <mxCell id="wF4mP8w9-cqMa2zVFERf-57" value="Dezimal zu binÃ¤r" style="ellipse;html=1;fillColor=#ffff88;strokeColor=#36393d;whiteSpace=wrap;" parent="1" vertex="1">
          <mxGeometry x="2510" y="120" width="120" height="50" as="geometry"/>
        </mxCell>
        <mxCell id="In2b0w2_5TZYF9G1gsUI-34" value="" style="edgeStyle=none;rounded=0;orthogonalLoop=1;jettySize=auto;html=1;" edge="1" parent="1" source="wF4mP8w9-cqMa2zVFERf-66" target="In2b0w2_5TZYF9G1gsUI-29">
          <mxGeometry relative="1" as="geometry">
            <mxPoint x="2750" y="535" as="targetPoint"/>
          </mxGeometry>
        </mxCell>
        <mxCell id="In2b0w2_5TZYF9G1gsUI-35" style="edgeStyle=none;rounded=0;orthogonalLoop=1;jettySize=auto;html=1;" edge="1" parent="1" source="wF4mP8w9-cqMa2zVFERf-66" target="In2b0w2_5TZYF9G1gsUI-30">
          <mxGeometry relative="1" as="geometry"/>
        </mxCell>
        <mxCell id="In2b0w2_5TZYF9G1gsUI-36" style="edgeStyle=none;rounded=0;orthogonalLoop=1;jettySize=auto;html=1;" edge="1" parent="1" source="wF4mP8w9-cqMa2zVFERf-66" target="In2b0w2_5TZYF9G1gsUI-31">
          <mxGeometry relative="1" as="geometry"/>
        </mxCell>
        <mxCell id="In2b0w2_5TZYF9G1gsUI-37" style="edgeStyle=none;rounded=0;orthogonalLoop=1;jettySize=auto;html=1;" edge="1" parent="1" source="wF4mP8w9-cqMa2zVFERf-66" target="In2b0w2_5TZYF9G1gsUI-32">
          <mxGeometry relative="1" as="geometry"/>
        </mxCell>
        <mxCell id="In2b0w2_5TZYF9G1gsUI-38" style="edgeStyle=none;rounded=0;orthogonalLoop=1;jettySize=auto;html=1;entryX=1;entryY=1;entryDx=0;entryDy=0;" edge="1" parent="1" source="wF4mP8w9-cqMa2zVFERf-66" target="In2b0w2_5TZYF9G1gsUI-25">
          <mxGeometry relative="1" as="geometry"/>
        </mxCell>
        <mxCell id="In2b0w2_5TZYF9G1gsUI-39" style="edgeStyle=none;rounded=0;orthogonalLoop=1;jettySize=auto;html=1;" edge="1" parent="1" source="wF4mP8w9-cqMa2zVFERf-66" target="In2b0w2_5TZYF9G1gsUI-26">
          <mxGeometry relative="1" as="geometry"/>
        </mxCell>
        <mxCell id="In2b0w2_5TZYF9G1gsUI-40" style="edgeStyle=none;rounded=0;orthogonalLoop=1;jettySize=auto;html=1;entryX=1;entryY=0;entryDx=0;entryDy=0;" edge="1" parent="1" source="wF4mP8w9-cqMa2zVFERf-66" target="In2b0w2_5TZYF9G1gsUI-27">
          <mxGeometry relative="1" as="geometry"/>
        </mxCell>
        <mxCell id="In2b0w2_5TZYF9G1gsUI-41" style="edgeStyle=none;rounded=0;orthogonalLoop=1;jettySize=auto;html=1;" edge="1" parent="1" source="wF4mP8w9-cqMa2zVFERf-66" target="In2b0w2_5TZYF9G1gsUI-28">
          <mxGeometry relative="1" as="geometry"/>
        </mxCell>
        <mxCell id="wF4mP8w9-cqMa2zVFERf-66" value="Variablenrollen" style="ellipse;html=1;fillColor=#dae8fc;strokeColor=#6c8ebf;whiteSpace=wrap;" parent="1" vertex="1">
          <mxGeometry x="2700" y="399" width="120" height="50" as="geometry"/>
        </mxCell>
        <mxCell id="IUjpNbBkHvmJUEdH-6QP-1" value="Bitoperatoren" style="ellipse;html=1;fillColor=#dae8fc;strokeColor=#6c8ebf;whiteSpace=wrap;" parent="1" vertex="1">
          <mxGeometry x="920" y="392.5" width="130" height="60" as="geometry"/>
        </mxCell>
        <mxCell id="i1R9sLjK4HXDBMoAynH--27" style="edgeStyle=orthogonalEdgeStyle;rounded=0;orthogonalLoop=1;jettySize=auto;html=1;exitX=1;exitY=0.5;exitDx=0;exitDy=0;entryX=0;entryY=0.5;entryDx=0;entryDy=0;" parent="1" source="i1R9sLjK4HXDBMoAynH--2" target="i1R9sLjK4HXDBMoAynH--3" edge="1">
          <mxGeometry relative="1" as="geometry"/>
        </mxCell>
        <mxCell id="i1R9sLjK4HXDBMoAynH--34" style="edgeStyle=none;rounded=0;orthogonalLoop=1;jettySize=auto;html=1;exitX=0.5;exitY=1;exitDx=0;exitDy=0;" parent="1" source="In2b0w2_5TZYF9G1gsUI-112" target="i1R9sLjK4HXDBMoAynH--25" edge="1">
          <mxGeometry relative="1" as="geometry">
            <mxPoint x="3419.999999999999" y="150" as="targetPoint"/>
          </mxGeometry>
        </mxCell>
        <mxCell id="i1R9sLjK4HXDBMoAynH--2" value="Operationen" style="rounded=0;html=1;fillColor=#cdeb8b;strokeColor=#36393d;whiteSpace=wrap;" parent="1" vertex="1">
          <mxGeometry x="3110" y="40" width="120" height="50" as="geometry"/>
        </mxCell>
        <mxCell id="i1R9sLjK4HXDBMoAynH--3" value="ProblemreprÃ¤senation" style="rounded=0;html=1;fillColor=#cdeb8b;strokeColor=#36393d;whiteSpace=wrap;" parent="1" vertex="1">
          <mxGeometry x="3270" y="40" width="220" height="50" as="geometry"/>
        </mxCell>
        <mxCell id="i1R9sLjK4HXDBMoAynH--29" style="edgeStyle=orthogonalEdgeStyle;rounded=0;orthogonalLoop=1;jettySize=auto;html=1;exitX=1;exitY=0.5;exitDx=0;exitDy=0;" parent="1" source="i1R9sLjK4HXDBMoAynH--4" target="In2b0w2_5TZYF9G1gsUI-54" edge="1">
          <mxGeometry relative="1" as="geometry">
            <mxPoint x="4070" y="65" as="targetPoint"/>
          </mxGeometry>
        </mxCell>
        <mxCell id="In2b0w2_5TZYF9G1gsUI-126" style="edgeStyle=none;rounded=0;orthogonalLoop=1;jettySize=auto;html=1;" edge="1" parent="1" source="i1R9sLjK4HXDBMoAynH--4" target="In2b0w2_5TZYF9G1gsUI-124">
          <mxGeometry relative="1" as="geometry"/>
        </mxCell>
        <mxCell id="i1R9sLjK4HXDBMoAynH--4" value="Arrays" style="rounded=0;html=1;fillColor=#cdeb8b;strokeColor=#36393d;whiteSpace=wrap;" parent="1" vertex="1">
          <mxGeometry x="3900" y="40" width="120" height="50" as="geometry"/>
        </mxCell>
        <mxCell id="i1R9sLjK4HXDBMoAynH--50" style="edgeStyle=none;rounded=0;orthogonalLoop=1;jettySize=auto;html=1;exitX=0.5;exitY=1;exitDx=0;exitDy=0;entryX=0.5;entryY=0;entryDx=0;entryDy=0;" parent="1" source="i1R9sLjK4HXDBMoAynH--11" target="i1R9sLjK4HXDBMoAynH--2" edge="1">
          <mxGeometry relative="1" as="geometry"/>
        </mxCell>
        <mxCell id="i1R9sLjK4HXDBMoAynH--11" value="Boids" style="shape=process;html=1;backgroundOutline=1;fillColor=#ffff88;strokeColor=#36393d;whiteSpace=wrap;" parent="1" vertex="1">
          <mxGeometry x="3110" y="-50" width="120" height="60" as="geometry"/>
        </mxCell>
        <mxCell id="i1R9sLjK4HXDBMoAynH--51" style="edgeStyle=none;rounded=0;orthogonalLoop=1;jettySize=auto;html=1;exitX=0.5;exitY=1;exitDx=0;exitDy=0;entryX=0.5;entryY=0;entryDx=0;entryDy=0;" parent="1" source="i1R9sLjK4HXDBMoAynH--12" target="i1R9sLjK4HXDBMoAynH--3" edge="1">
          <mxGeometry relative="1" as="geometry"/>
        </mxCell>
        <mxCell id="i1R9sLjK4HXDBMoAynH--12" value="Geometrie der Boids" style="shape=process;html=1;backgroundOutline=1;fillColor=#ffff88;strokeColor=#36393d;whiteSpace=wrap;" parent="1" vertex="1">
          <mxGeometry x="3320" y="-50" width="120" height="60" as="geometry"/>
        </mxCell>
        <mxCell id="i1R9sLjK4HXDBMoAynH--52" style="edgeStyle=none;rounded=0;orthogonalLoop=1;jettySize=auto;html=1;exitX=0.5;exitY=1;exitDx=0;exitDy=0;entryX=0.5;entryY=0;entryDx=0;entryDy=0;" parent="1" source="i1R9sLjK4HXDBMoAynH--13" target="i1R9sLjK4HXDBMoAynH--4" edge="1">
          <mxGeometry relative="1" as="geometry"/>
        </mxCell>
        <mxCell id="i1R9sLjK4HXDBMoAynH--13" value="Mehrere Boids" style="shape=process;html=1;backgroundOutline=1;fillColor=#ffff88;strokeColor=#36393d;whiteSpace=wrap;" parent="1" vertex="1">
          <mxGeometry x="3900" y="-50" width="120" height="60" as="geometry"/>
        </mxCell>
        <mxCell id="i1R9sLjK4HXDBMoAynH--33" style="rounded=0;orthogonalLoop=1;jettySize=auto;html=1;exitX=1;exitY=0.5;exitDx=0;exitDy=0;" parent="1" source="i1R9sLjK4HXDBMoAynH--17" target="i1R9sLjK4HXDBMoAynH--25" edge="1">
          <mxGeometry relative="1" as="geometry"/>
        </mxCell>
        <mxCell id="i1R9sLjK4HXDBMoAynH--17" value="Zustandsgraph" style="ellipse;html=1;fillColor=#cdeb8b;strokeColor=#36393d;whiteSpace=wrap;" parent="1" vertex="1">
          <mxGeometry x="2880" y="170" width="120" height="50" as="geometry"/>
        </mxCell>
        <mxCell id="i1R9sLjK4HXDBMoAynH--32" style="rounded=0;orthogonalLoop=1;jettySize=auto;html=1;exitX=1;exitY=0.5;exitDx=0;exitDy=0;entryX=0;entryY=1;entryDx=0;entryDy=0;" parent="1" source="i1R9sLjK4HXDBMoAynH--18" target="i1R9sLjK4HXDBMoAynH--25" edge="1">
          <mxGeometry relative="1" as="geometry"/>
        </mxCell>
        <mxCell id="i1R9sLjK4HXDBMoAynH--18" value="lokal und global" style="ellipse;html=1;fillColor=#cdeb8b;strokeColor=#36393d;dashed=1;whiteSpace=wrap;" parent="1" vertex="1">
          <mxGeometry x="3380" y="150" width="120" height="50" as="geometry"/>
        </mxCell>
        <mxCell id="i1R9sLjK4HXDBMoAynH--45" style="edgeStyle=none;rounded=0;orthogonalLoop=1;jettySize=auto;html=1;" parent="1" source="i1R9sLjK4HXDBMoAynH--20" target="i1R9sLjK4HXDBMoAynH--24" edge="1">
          <mxGeometry relative="1" as="geometry"/>
        </mxCell>
        <mxCell id="i1R9sLjK4HXDBMoAynH--20" value="&lt;div&gt;Primfaktorzerlegung&lt;/div&gt;" style="ellipse;html=1;fillColor=#ffff88;strokeColor=#36393d;whiteSpace=wrap;" parent="1" vertex="1">
          <mxGeometry x="4400" y="397.5" width="120" height="50" as="geometry"/>
        </mxCell>
        <mxCell id="i1R9sLjK4HXDBMoAynH--46" style="edgeStyle=none;rounded=0;orthogonalLoop=1;jettySize=auto;html=1;" parent="1" source="i1R9sLjK4HXDBMoAynH--21" target="i1R9sLjK4HXDBMoAynH--24" edge="1">
          <mxGeometry relative="1" as="geometry"/>
        </mxCell>
        <mxCell id="i1R9sLjK4HXDBMoAynH--21" value="Primzahltest" style="ellipse;html=1;fillColor=#ffff88;strokeColor=#36393d;whiteSpace=wrap;" parent="1" vertex="1">
          <mxGeometry x="4250" y="392.5" width="120" height="50" as="geometry"/>
        </mxCell>
        <mxCell id="i1R9sLjK4HXDBMoAynH--49" style="edgeStyle=none;rounded=0;orthogonalLoop=1;jettySize=auto;html=1;" parent="1" source="i1R9sLjK4HXDBMoAynH--22" target="i1R9sLjK4HXDBMoAynH--24" edge="1">
          <mxGeometry relative="1" as="geometry"/>
        </mxCell>
        <mxCell id="i1R9sLjK4HXDBMoAynH--22" value="&lt;div&gt;Alle Teiler&lt;/div&gt;" style="ellipse;html=1;fillColor=#ffff88;strokeColor=#36393d;whiteSpace=wrap;" parent="1" vertex="1">
          <mxGeometry x="4120" y="390" width="120" height="50" as="geometry"/>
        </mxCell>
        <mxCell id="i1R9sLjK4HXDBMoAynH--48" style="edgeStyle=none;rounded=0;orthogonalLoop=1;jettySize=auto;html=1;" parent="1" source="i1R9sLjK4HXDBMoAynH--23" target="i1R9sLjK4HXDBMoAynH--24" edge="1">
          <mxGeometry relative="1" as="geometry">
            <mxPoint x="4170" y="522.5" as="targetPoint"/>
          </mxGeometry>
        </mxCell>
        <mxCell id="i1R9sLjK4HXDBMoAynH--23" value="Logarithmus" style="ellipse;html=1;fillColor=#ffff88;strokeColor=#36393d;whiteSpace=wrap;" parent="1" vertex="1">
          <mxGeometry x="3960" y="392.5" width="120" height="50" as="geometry"/>
        </mxCell>
        <mxCell id="i1R9sLjK4HXDBMoAynH--24" value="&lt;div&gt;Algorithmenimplementierung&lt;/div&gt;" style="rhombus;html=1;fillColor=#cdeb8b;strokeColor=#36393d;whiteSpace=wrap;" parent="1" vertex="1">
          <mxGeometry x="4140" y="502.5" width="220" height="75" as="geometry"/>
        </mxCell>
        <mxCell id="i1R9sLjK4HXDBMoAynH--25" value="Events" style="rhombus;html=1;fillColor=#cdeb8b;strokeColor=#36393d;whiteSpace=wrap;" parent="1" vertex="1">
          <mxGeometry x="3095" y="252.5" width="150" height="75" as="geometry"/>
        </mxCell>
        <mxCell id="jU5m-M4uJAjMKgkcOitX-2" style="edgeStyle=orthogonalEdgeStyle;rounded=0;orthogonalLoop=1;jettySize=auto;html=1;exitX=0.5;exitY=0;exitDx=0;exitDy=0;entryX=0.5;entryY=1;entryDx=0;entryDy=0;" parent="1" source="jU5m-M4uJAjMKgkcOitX-1" target="i1R9sLjK4HXDBMoAynH--24" edge="1">
          <mxGeometry relative="1" as="geometry"/>
        </mxCell>
        <mxCell id="jU5m-M4uJAjMKgkcOitX-1" value="Schwarm von Boids" style="shape=process;html=1;backgroundOutline=1;fillColor=#ffff88;strokeColor=#36393d;whiteSpace=wrap;" parent="1" vertex="1">
          <mxGeometry x="4190" y="650" width="120" height="60" as="geometry"/>
        </mxCell>
        <mxCell id="In2b0w2_5TZYF9G1gsUI-52" style="edgeStyle=none;rounded=0;orthogonalLoop=1;jettySize=auto;html=1;" edge="1" parent="1" source="RhlI-v3CvirQ98oo1_78-1" target="In2b0w2_5TZYF9G1gsUI-51">
          <mxGeometry relative="1" as="geometry"/>
        </mxCell>
        <mxCell id="In2b0w2_5TZYF9G1gsUI-122" style="edgeStyle=none;rounded=0;orthogonalLoop=1;jettySize=auto;html=1;" edge="1" parent="1" source="RhlI-v3CvirQ98oo1_78-1" target="In2b0w2_5TZYF9G1gsUI-121">
          <mxGeometry relative="1" as="geometry"/>
        </mxCell>
        <mxCell id="RhlI-v3CvirQ98oo1_78-1" value="Call By Reference" style="rounded=0;html=1;fillColor=#cdeb8b;strokeColor=#36393d;whiteSpace=wrap;" parent="1" vertex="1">
          <mxGeometry x="3560" y="40" width="120" height="50" as="geometry"/>
        </mxCell>
        <mxCell id="RhlI-v3CvirQ98oo1_78-2" style="edgeStyle=orthogonalEdgeStyle;rounded=0;orthogonalLoop=1;jettySize=auto;html=1;exitX=1;exitY=0.5;exitDx=0;exitDy=0;entryX=0;entryY=0.5;entryDx=0;entryDy=0;" parent="1" source="i1R9sLjK4HXDBMoAynH--3" target="RhlI-v3CvirQ98oo1_78-1" edge="1">
          <mxGeometry relative="1" as="geometry">
            <mxPoint x="3490.2941176470586" y="64.76470588235316" as="sourcePoint"/>
            <mxPoint x="3730.2941176470586" y="64.76470588235316" as="targetPoint"/>
          </mxGeometry>
        </mxCell>
        <mxCell id="RhlI-v3CvirQ98oo1_78-5" style="edgeStyle=orthogonalEdgeStyle;rounded=0;orthogonalLoop=1;jettySize=auto;html=1;exitX=0.5;exitY=1;exitDx=0;exitDy=0;entryX=0.5;entryY=0;entryDx=0;entryDy=0;" parent="1" source="RhlI-v3CvirQ98oo1_78-4" target="RhlI-v3CvirQ98oo1_78-1" edge="1">
          <mxGeometry relative="1" as="geometry"/>
        </mxCell>
        <mxCell id="RhlI-v3CvirQ98oo1_78-4" value="Bewegliche Boids" style="shape=process;html=1;backgroundOutline=1;fillColor=#ffff88;strokeColor=#36393d;whiteSpace=wrap;" parent="1" vertex="1">
          <mxGeometry x="3560" y="-50" width="120" height="60" as="geometry"/>
        </mxCell>
        <mxCell id="In2b0w2_5TZYF9G1gsUI-14" value="" style="edgeStyle=orthogonalEdgeStyle;rounded=0;orthogonalLoop=1;jettySize=auto;html=1;" edge="1" parent="1" source="In2b0w2_5TZYF9G1gsUI-3" target="In2b0w2_5TZYF9G1gsUI-13">
          <mxGeometry relative="1" as="geometry"/>
        </mxCell>
        <mxCell id="In2b0w2_5TZYF9G1gsUI-3" value="Festkommazahlen" style="ellipse;html=1;whiteSpace=wrap;fillColor=#dae8fc;strokeColor=#6c8ebf;" vertex="1" parent="1">
          <mxGeometry x="1200" y="375" width="120" height="48" as="geometry"/>
        </mxCell>
        <mxCell id="In2b0w2_5TZYF9G1gsUI-13" value="Gleitkommazahlen" style="ellipse;html=1;whiteSpace=wrap;fillColor=#dae8fc;strokeColor=#6c8ebf;" vertex="1" parent="1">
          <mxGeometry x="1200" y="455" width="120" height="50" as="geometry"/>
        </mxCell>
        <mxCell id="In2b0w2_5TZYF9G1gsUI-25" value="Fixed Value" style="ellipse;html=1;fillColor=#dae8fc;strokeColor=#6c8ebf;whiteSpace=wrap;" vertex="1" parent="1">
          <mxGeometry x="2510" y="315" width="120" height="50" as="geometry"/>
        </mxCell>
        <mxCell id="In2b0w2_5TZYF9G1gsUI-26" value="Organizer" style="ellipse;html=1;fillColor=#dae8fc;strokeColor=#6c8ebf;whiteSpace=wrap;" vertex="1" parent="1">
          <mxGeometry x="2430" y="385" width="120" height="50" as="geometry"/>
        </mxCell>
        <mxCell id="In2b0w2_5TZYF9G1gsUI-27" value="Stepper" style="ellipse;html=1;fillColor=#dae8fc;strokeColor=#6c8ebf;whiteSpace=wrap;" vertex="1" parent="1">
          <mxGeometry x="2440" y="467.5" width="120" height="50" as="geometry"/>
        </mxCell>
        <mxCell id="In2b0w2_5TZYF9G1gsUI-28" value="Most Recent Holder" style="ellipse;html=1;fillColor=#dae8fc;strokeColor=#6c8ebf;whiteSpace=wrap;" vertex="1" parent="1">
          <mxGeometry x="2520" y="530" width="120" height="50" as="geometry"/>
        </mxCell>
        <mxCell id="In2b0w2_5TZYF9G1gsUI-29" value="Most Wanted Holder" style="ellipse;html=1;fillColor=#dae8fc;strokeColor=#6c8ebf;whiteSpace=wrap;" vertex="1" parent="1">
          <mxGeometry x="2661" y="560" width="120" height="50" as="geometry"/>
        </mxCell>
        <mxCell id="In2b0w2_5TZYF9G1gsUI-30" value="Follower" style="ellipse;html=1;fillColor=#dae8fc;strokeColor=#6c8ebf;whiteSpace=wrap;" vertex="1" parent="1">
          <mxGeometry x="2820" y="551.5" width="120" height="50" as="geometry"/>
        </mxCell>
        <mxCell id="In2b0w2_5TZYF9G1gsUI-31" value="State Marker" style="ellipse;html=1;fillColor=#dae8fc;strokeColor=#6c8ebf;whiteSpace=wrap;" vertex="1" parent="1">
          <mxGeometry x="2890" y="480" width="120" height="50" as="geometry"/>
        </mxCell>
        <mxCell id="In2b0w2_5TZYF9G1gsUI-32" value="One Way Flag" style="ellipse;html=1;fillColor=#dae8fc;strokeColor=#6c8ebf;whiteSpace=wrap;" vertex="1" parent="1">
          <mxGeometry x="2940" y="410" width="120" height="50" as="geometry"/>
        </mxCell>
        <mxCell id="In2b0w2_5TZYF9G1gsUI-53" style="edgeStyle=none;rounded=0;orthogonalLoop=1;jettySize=auto;html=1;" edge="1" parent="1" source="In2b0w2_5TZYF9G1gsUI-51" target="i1R9sLjK4HXDBMoAynH--4">
          <mxGeometry relative="1" as="geometry"/>
        </mxCell>
        <mxCell id="In2b0w2_5TZYF9G1gsUI-123" style="edgeStyle=none;rounded=0;orthogonalLoop=1;jettySize=auto;html=1;" edge="1" parent="1" source="In2b0w2_5TZYF9G1gsUI-51" target="In2b0w2_5TZYF9G1gsUI-121">
          <mxGeometry relative="1" as="geometry"/>
        </mxCell>
        <mxCell id="In2b0w2_5TZYF9G1gsUI-51" value="Pointer" style="rounded=0;html=1;fillColor=#cdeb8b;strokeColor=#36393d;whiteSpace=wrap;" vertex="1" parent="1">
          <mxGeometry x="3730" y="40" width="120" height="50" as="geometry"/>
        </mxCell>
        <mxCell id="In2b0w2_5TZYF9G1gsUI-54" value="&lt;font style=&quot;font-size: 26px&quot;&gt;A&lt;/font&gt;" style="ellipse;whiteSpace=wrap;html=1;aspect=fixed;" vertex="1" parent="1">
          <mxGeometry x="4070" y="42.5" width="45" height="45" as="geometry"/>
        </mxCell>
        <mxCell id="In2b0w2_5TZYF9G1gsUI-59" value="" style="edgeStyle=none;rounded=0;orthogonalLoop=1;jettySize=auto;html=1;" edge="1" parent="1" source="In2b0w2_5TZYF9G1gsUI-55" target="In2b0w2_5TZYF9G1gsUI-56">
          <mxGeometry relative="1" as="geometry"/>
        </mxCell>
        <mxCell id="In2b0w2_5TZYF9G1gsUI-55" value="&lt;font style=&quot;font-size: 26px&quot;&gt;A&lt;/font&gt;" style="ellipse;whiteSpace=wrap;html=1;aspect=fixed;" vertex="1" parent="1">
          <mxGeometry x="220" y="712.5" width="45" height="45" as="geometry"/>
        </mxCell>
        <mxCell id="In2b0w2_5TZYF9G1gsUI-57" value="&lt;font style=&quot;font-size: 26px&quot;&gt;A&lt;/font&gt;" style="ellipse;whiteSpace=wrap;html=1;aspect=fixed;" vertex="1" parent="1">
          <mxGeometry x="345" y="712.5" width="45" height="45" as="geometry"/>
        </mxCell>
        <mxCell id="In2b0w2_5TZYF9G1gsUI-61" value="" style="edgeStyle=none;rounded=0;orthogonalLoop=1;jettySize=auto;html=1;" edge="1" parent="1" source="In2b0w2_5TZYF9G1gsUI-56" target="In2b0w2_5TZYF9G1gsUI-60">
          <mxGeometry relative="1" as="geometry"/>
        </mxCell>
        <mxCell id="In2b0w2_5TZYF9G1gsUI-148" value="" style="edgeStyle=none;rounded=0;orthogonalLoop=1;jettySize=auto;html=1;" edge="1" parent="1" source="In2b0w2_5TZYF9G1gsUI-56" target="In2b0w2_5TZYF9G1gsUI-147">
          <mxGeometry relative="1" as="geometry"/>
        </mxCell>
        <mxCell id="In2b0w2_5TZYF9G1gsUI-56" value="Klassen und Objekte" style="rounded=0;html=1;fillColor=#cdeb8b;strokeColor=#36393d;whiteSpace=wrap;" vertex="1" parent="1">
          <mxGeometry x="320" y="712.5" width="120" height="50" as="geometry"/>
        </mxCell>
        <mxCell id="In2b0w2_5TZYF9G1gsUI-63" value="" style="edgeStyle=none;rounded=0;orthogonalLoop=1;jettySize=auto;html=1;" edge="1" parent="1" source="In2b0w2_5TZYF9G1gsUI-60" target="In2b0w2_5TZYF9G1gsUI-62">
          <mxGeometry relative="1" as="geometry"/>
        </mxCell>
        <mxCell id="In2b0w2_5TZYF9G1gsUI-152" value="" style="edgeStyle=none;rounded=0;orthogonalLoop=1;jettySize=auto;html=1;" edge="1" parent="1" source="In2b0w2_5TZYF9G1gsUI-60" target="In2b0w2_5TZYF9G1gsUI-151">
          <mxGeometry relative="1" as="geometry"/>
        </mxCell>
        <mxCell id="In2b0w2_5TZYF9G1gsUI-60" value="Objekte und Pointer" style="rounded=0;html=1;fillColor=#cdeb8b;strokeColor=#36393d;whiteSpace=wrap;" vertex="1" parent="1">
          <mxGeometry x="490" y="712.5" width="120" height="50" as="geometry"/>
        </mxCell>
        <mxCell id="In2b0w2_5TZYF9G1gsUI-65" value="" style="edgeStyle=none;rounded=0;orthogonalLoop=1;jettySize=auto;html=1;" edge="1" parent="1" source="In2b0w2_5TZYF9G1gsUI-62" target="In2b0w2_5TZYF9G1gsUI-64">
          <mxGeometry relative="1" as="geometry"/>
        </mxCell>
        <mxCell id="In2b0w2_5TZYF9G1gsUI-62" value="Suchstrategien" style="rounded=0;html=1;fillColor=#cdeb8b;strokeColor=#36393d;whiteSpace=wrap;" vertex="1" parent="1">
          <mxGeometry x="660" y="712.5" width="120" height="50" as="geometry"/>
        </mxCell>
        <mxCell id="In2b0w2_5TZYF9G1gsUI-67" value="" style="edgeStyle=none;rounded=0;orthogonalLoop=1;jettySize=auto;html=1;" edge="1" parent="1" source="In2b0w2_5TZYF9G1gsUI-64" target="In2b0w2_5TZYF9G1gsUI-66">
          <mxGeometry relative="1" as="geometry"/>
        </mxCell>
        <mxCell id="In2b0w2_5TZYF9G1gsUI-131" value="" style="edgeStyle=none;rounded=0;orthogonalLoop=1;jettySize=auto;html=1;" edge="1" parent="1" source="In2b0w2_5TZYF9G1gsUI-64" target="In2b0w2_5TZYF9G1gsUI-130">
          <mxGeometry relative="1" as="geometry"/>
        </mxCell>
        <mxCell id="In2b0w2_5TZYF9G1gsUI-64" value="Asymptotische Laufzeiten" style="rounded=0;html=1;fillColor=#cdeb8b;strokeColor=#36393d;whiteSpace=wrap;" vertex="1" parent="1">
          <mxGeometry x="840" y="712.5" width="120" height="50" as="geometry"/>
        </mxCell>
        <mxCell id="In2b0w2_5TZYF9G1gsUI-74" value="" style="edgeStyle=none;rounded=0;orthogonalLoop=1;jettySize=auto;html=1;" edge="1" parent="1" source="In2b0w2_5TZYF9G1gsUI-66" target="In2b0w2_5TZYF9G1gsUI-73">
          <mxGeometry relative="1" as="geometry"/>
        </mxCell>
        <mxCell id="In2b0w2_5TZYF9G1gsUI-66" value="Quadratisches Sortieren" style="rounded=0;html=1;fillColor=#cdeb8b;strokeColor=#36393d;whiteSpace=wrap;" vertex="1" parent="1">
          <mxGeometry x="1020" y="712.5" width="120" height="50" as="geometry"/>
        </mxCell>
        <mxCell id="In2b0w2_5TZYF9G1gsUI-76" value="" style="edgeStyle=none;rounded=0;orthogonalLoop=1;jettySize=auto;html=1;" edge="1" parent="1" source="In2b0w2_5TZYF9G1gsUI-73" target="In2b0w2_5TZYF9G1gsUI-75">
          <mxGeometry relative="1" as="geometry"/>
        </mxCell>
        <mxCell id="In2b0w2_5TZYF9G1gsUI-73" value="HeapSort" style="rounded=0;html=1;fillColor=#cdeb8b;strokeColor=#36393d;whiteSpace=wrap;" vertex="1" parent="1">
          <mxGeometry x="1200" y="712.5" width="120" height="50" as="geometry"/>
        </mxCell>
        <mxCell id="In2b0w2_5TZYF9G1gsUI-78" value="" style="edgeStyle=none;rounded=0;orthogonalLoop=1;jettySize=auto;html=1;" edge="1" parent="1" source="In2b0w2_5TZYF9G1gsUI-75" target="In2b0w2_5TZYF9G1gsUI-77">
          <mxGeometry relative="1" as="geometry"/>
        </mxCell>
        <mxCell id="In2b0w2_5TZYF9G1gsUI-75" value="Listen" style="rounded=0;html=1;fillColor=#cdeb8b;strokeColor=#36393d;whiteSpace=wrap;" vertex="1" parent="1">
          <mxGeometry x="1400" y="712.5" width="120" height="50" as="geometry"/>
        </mxCell>
        <mxCell id="In2b0w2_5TZYF9G1gsUI-80" value="" style="edgeStyle=none;rounded=0;orthogonalLoop=1;jettySize=auto;html=1;" edge="1" parent="1" source="In2b0w2_5TZYF9G1gsUI-77" target="In2b0w2_5TZYF9G1gsUI-79">
          <mxGeometry relative="1" as="geometry"/>
        </mxCell>
        <mxCell id="In2b0w2_5TZYF9G1gsUI-77" value="MergeSort" style="rounded=0;html=1;fillColor=#cdeb8b;strokeColor=#36393d;whiteSpace=wrap;" vertex="1" parent="1">
          <mxGeometry x="1600" y="712.5" width="120" height="50" as="geometry"/>
        </mxCell>
        <mxCell id="In2b0w2_5TZYF9G1gsUI-82" value="" style="edgeStyle=none;rounded=0;orthogonalLoop=1;jettySize=auto;html=1;" edge="1" parent="1" source="In2b0w2_5TZYF9G1gsUI-79" target="In2b0w2_5TZYF9G1gsUI-81">
          <mxGeometry relative="1" as="geometry"/>
        </mxCell>
        <mxCell id="In2b0w2_5TZYF9G1gsUI-79" value="Rekursion" style="rounded=0;html=1;fillColor=#cdeb8b;strokeColor=#36393d;whiteSpace=wrap;" vertex="1" parent="1">
          <mxGeometry x="1800" y="712.5" width="120" height="50" as="geometry"/>
        </mxCell>
        <mxCell id="In2b0w2_5TZYF9G1gsUI-84" value="" style="edgeStyle=none;rounded=0;orthogonalLoop=1;jettySize=auto;html=1;" edge="1" parent="1" source="In2b0w2_5TZYF9G1gsUI-81" target="In2b0w2_5TZYF9G1gsUI-83">
          <mxGeometry relative="1" as="geometry"/>
        </mxCell>
        <mxCell id="In2b0w2_5TZYF9G1gsUI-81" value="QuickSort" style="rounded=0;html=1;fillColor=#cdeb8b;strokeColor=#36393d;whiteSpace=wrap;" vertex="1" parent="1">
          <mxGeometry x="2000" y="712.5" width="120" height="50" as="geometry"/>
        </mxCell>
        <mxCell id="In2b0w2_5TZYF9G1gsUI-86" value="" style="edgeStyle=none;rounded=0;orthogonalLoop=1;jettySize=auto;html=1;" edge="1" parent="1" source="In2b0w2_5TZYF9G1gsUI-83" target="In2b0w2_5TZYF9G1gsUI-85">
          <mxGeometry relative="1" as="geometry"/>
        </mxCell>
        <mxCell id="In2b0w2_5TZYF9G1gsUI-83" value="Queues" style="rounded=0;html=1;fillColor=#cdeb8b;strokeColor=#36393d;whiteSpace=wrap;" vertex="1" parent="1">
          <mxGeometry x="2200" y="712.5" width="120" height="50" as="geometry"/>
        </mxCell>
        <mxCell id="In2b0w2_5TZYF9G1gsUI-88" value="" style="edgeStyle=none;rounded=0;orthogonalLoop=1;jettySize=auto;html=1;" edge="1" parent="1" source="In2b0w2_5TZYF9G1gsUI-85" target="In2b0w2_5TZYF9G1gsUI-87">
          <mxGeometry relative="1" as="geometry"/>
        </mxCell>
        <mxCell id="In2b0w2_5TZYF9G1gsUI-85" value="Stacks" style="rounded=0;html=1;fillColor=#cdeb8b;strokeColor=#36393d;whiteSpace=wrap;" vertex="1" parent="1">
          <mxGeometry x="2400" y="712.5" width="120" height="50" as="geometry"/>
        </mxCell>
        <mxCell id="In2b0w2_5TZYF9G1gsUI-90" value="" style="edgeStyle=none;rounded=0;orthogonalLoop=1;jettySize=auto;html=1;" edge="1" parent="1" source="In2b0w2_5TZYF9G1gsUI-87" target="In2b0w2_5TZYF9G1gsUI-89">
          <mxGeometry relative="1" as="geometry"/>
        </mxCell>
        <mxCell id="In2b0w2_5TZYF9G1gsUI-87" value="BÃ¤ume" style="rounded=0;html=1;fillColor=#cdeb8b;strokeColor=#36393d;whiteSpace=wrap;" vertex="1" parent="1">
          <mxGeometry x="2600" y="712.5" width="120" height="50" as="geometry"/>
        </mxCell>
        <mxCell id="In2b0w2_5TZYF9G1gsUI-89" value="Graphen" style="rounded=0;html=1;fillColor=#cdeb8b;strokeColor=#36393d;whiteSpace=wrap;" vertex="1" parent="1">
          <mxGeometry x="2800" y="712.5" width="120" height="50" as="geometry"/>
        </mxCell>
        <mxCell id="In2b0w2_5TZYF9G1gsUI-112" value="Events" style="ellipse;html=1;fillColor=#cdeb8b;strokeColor=#36393d;whiteSpace=wrap;" vertex="1" parent="1">
          <mxGeometry x="3110" y="146.5" width="120" height="50" as="geometry"/>
        </mxCell>
        <mxCell id="In2b0w2_5TZYF9G1gsUI-113" style="edgeStyle=none;rounded=0;orthogonalLoop=1;jettySize=auto;html=1;exitX=0.5;exitY=1;exitDx=0;exitDy=0;" edge="1" parent="1" source="i1R9sLjK4HXDBMoAynH--2" target="In2b0w2_5TZYF9G1gsUI-112">
          <mxGeometry relative="1" as="geometry">
            <mxPoint x="3160.25" y="260.64999999999964" as="targetPoint"/>
            <mxPoint x="3170" y="90" as="sourcePoint"/>
          </mxGeometry>
        </mxCell>
        <mxCell id="In2b0w2_5TZYF9G1gsUI-125" style="edgeStyle=none;rounded=0;orthogonalLoop=1;jettySize=auto;html=1;" edge="1" parent="1" source="In2b0w2_5TZYF9G1gsUI-121" target="In2b0w2_5TZYF9G1gsUI-124">
          <mxGeometry relative="1" as="geometry"/>
        </mxCell>
        <mxCell id="In2b0w2_5TZYF9G1gsUI-144" value="" style="edgeStyle=none;rounded=0;orthogonalLoop=1;jettySize=auto;html=1;" edge="1" parent="1" source="In2b0w2_5TZYF9G1gsUI-121" target="In2b0w2_5TZYF9G1gsUI-143">
          <mxGeometry relative="1" as="geometry"/>
        </mxCell>
        <mxCell id="In2b0w2_5TZYF9G1gsUI-121" value="Zeiger und Referenzen" style="ellipse;html=1;fillColor=#cdeb8b;strokeColor=#36393d;whiteSpace=wrap;" vertex="1" parent="1">
          <mxGeometry x="3640" y="150" width="120" height="50" as="geometry"/>
        </mxCell>
        <mxCell id="In2b0w2_5TZYF9G1gsUI-143" value="Referenzparameter" style="ellipse;html=1;fillColor=#cdeb8b;strokeColor=#36393d;whiteSpace=wrap;" vertex="1" parent="1">
          <mxGeometry x="3640" y="280" width="120" height="50" as="geometry"/>
        </mxCell>
        <mxCell id="In2b0w2_5TZYF9G1gsUI-124" value="Dynamische Arrays" style="ellipse;html=1;fillColor=#cdeb8b;strokeColor=#36393d;whiteSpace=wrap;" vertex="1" parent="1">
          <mxGeometry x="3810" y="205" width="120" height="50" as="geometry"/>
        </mxCell>
        <mxCell id="In2b0w2_5TZYF9G1gsUI-133" value="" style="edgeStyle=none;rounded=0;orthogonalLoop=1;jettySize=auto;html=1;" edge="1" parent="1" source="In2b0w2_5TZYF9G1gsUI-130" target="In2b0w2_5TZYF9G1gsUI-132">
          <mxGeometry relative="1" as="geometry"/>
        </mxCell>
        <mxCell id="In2b0w2_5TZYF9G1gsUI-130" value="O-Notation&lt;br&gt;Regeln" style="ellipse;html=1;fillColor=#cdeb8b;strokeColor=#36393d;whiteSpace=wrap;" vertex="1" parent="1">
          <mxGeometry x="840" y="820" width="120" height="60" as="geometry"/>
        </mxCell>
        <mxCell id="In2b0w2_5TZYF9G1gsUI-132" value="O-Notation&lt;br&gt;Beispiele" style="ellipse;html=1;fillColor=#cdeb8b;strokeColor=#36393d;whiteSpace=wrap;" vertex="1" parent="1">
          <mxGeometry x="840" y="920" width="120" height="60" as="geometry"/>
        </mxCell>
        <mxCell id="In2b0w2_5TZYF9G1gsUI-163" value="" style="edgeStyle=none;rounded=0;orthogonalLoop=1;jettySize=auto;html=1;" edge="1" parent="1" source="In2b0w2_5TZYF9G1gsUI-147" target="In2b0w2_5TZYF9G1gsUI-151">
          <mxGeometry relative="1" as="geometry"/>
        </mxCell>
        <mxCell id="In2b0w2_5TZYF9G1gsUI-147" value="Klassen und Objekte" style="ellipse;html=1;fillColor=#cdeb8b;strokeColor=#36393d;whiteSpace=wrap;" vertex="1" parent="1">
          <mxGeometry x="320" y="810" width="120" height="60" as="geometry"/>
        </mxCell>
        <mxCell id="In2b0w2_5TZYF9G1gsUI-154" value="" style="edgeStyle=none;rounded=0;orthogonalLoop=1;jettySize=auto;html=1;" edge="1" parent="1" source="In2b0w2_5TZYF9G1gsUI-151" target="In2b0w2_5TZYF9G1gsUI-153">
          <mxGeometry relative="1" as="geometry"/>
        </mxCell>
        <mxCell id="In2b0w2_5TZYF9G1gsUI-151" value="Beispiel: Tropfen" style="ellipse;html=1;fillColor=#ffff88;strokeColor=#36393d;whiteSpace=wrap;" vertex="1" parent="1">
          <mxGeometry x="490" y="810" width="120" height="60" as="geometry"/>
        </mxCell>
        <mxCell id="In2b0w2_5TZYF9G1gsUI-156" value="" style="edgeStyle=none;rounded=0;orthogonalLoop=1;jettySize=auto;html=1;" edge="1" parent="1" source="In2b0w2_5TZYF9G1gsUI-153" target="In2b0w2_5TZYF9G1gsUI-155">
          <mxGeometry relative="1" as="geometry"/>
        </mxCell>
        <mxCell id="In2b0w2_5TZYF9G1gsUI-153" value="Beispiel: Tropfen 2" style="ellipse;html=1;fillColor=#ffff88;strokeColor=#36393d;whiteSpace=wrap;" vertex="1" parent="1">
          <mxGeometry x="490" y="890" width="120" height="60" as="geometry"/>
        </mxCell>
        <mxCell id="In2b0w2_5TZYF9G1gsUI-158" value="" style="edgeStyle=none;rounded=0;orthogonalLoop=1;jettySize=auto;html=1;" edge="1" parent="1" source="In2b0w2_5TZYF9G1gsUI-155" target="In2b0w2_5TZYF9G1gsUI-157">
          <mxGeometry relative="1" as="geometry"/>
        </mxCell>
        <mxCell id="In2b0w2_5TZYF9G1gsUI-155" value="Beispiel: Tropfen 3" style="ellipse;html=1;fillColor=#ffff88;strokeColor=#36393d;whiteSpace=wrap;" vertex="1" parent="1">
          <mxGeometry x="490" y="970" width="120" height="60" as="geometry"/>
        </mxCell>
        <mxCell id="In2b0w2_5TZYF9G1gsUI-160" value="" style="edgeStyle=none;rounded=0;orthogonalLoop=1;jettySize=auto;html=1;" edge="1" parent="1" source="In2b0w2_5TZYF9G1gsUI-157" target="In2b0w2_5TZYF9G1gsUI-159">
          <mxGeometry relative="1" as="geometry"/>
        </mxCell>
        <mxCell id="In2b0w2_5TZYF9G1gsUI-157" value="Beispiel: Tropfen 4" style="ellipse;html=1;fillColor=#ffff88;strokeColor=#36393d;whiteSpace=wrap;" vertex="1" parent="1">
          <mxGeometry x="490" y="1060" width="120" height="60" as="geometry"/>
        </mxCell>
        <mxCell id="In2b0w2_5TZYF9G1gsUI-162" value="" style="edgeStyle=none;rounded=0;orthogonalLoop=1;jettySize=auto;html=1;" edge="1" parent="1" source="In2b0w2_5TZYF9G1gsUI-159" target="In2b0w2_5TZYF9G1gsUI-161">
          <mxGeometry relative="1" as="geometry"/>
        </mxCell>
        <mxCell id="In2b0w2_5TZYF9G1gsUI-159" value="Beispiel: Tropfen 5" style="ellipse;html=1;fillColor=#ffff88;strokeColor=#36393d;whiteSpace=wrap;" vertex="1" parent="1">
          <mxGeometry x="490" y="1140" width="120" height="60" as="geometry"/>
        </mxCell>
        <mxCell id="In2b0w2_5TZYF9G1gsUI-161" value="Beispiel: Tropfen 6" style="ellipse;html=1;fillColor=#ffff88;strokeColor=#36393d;whiteSpace=wrap;" vertex="1" parent="1">
          <mxGeometry x="490" y="1220" width="120" height="60" as="geometry"/>
        </mxCell>
        <mxCell id="FTDDd-owseV0-7RKEGn8-1" value="Assigned" style="" parent="0"/>
        <mxCell id="FTDDd-owseV0-7RKEGn8-4" value="Daniel" style="rounded=1;whiteSpace=wrap;html=1;fillColor=#ffff88;strokeColor=#36393d;" parent="FTDDd-owseV0-7RKEGn8-1" vertex="1">
          <mxGeometry x="540" y="140" width="40" height="20" as="geometry"/>
        </mxCell>
        <mxCell id="Srz_F0b2qAnOa-qPsFeJ-2" value="Daniel" style="rounded=1;whiteSpace=wrap;html=1;fillColor=#ffff88;strokeColor=#36393d;" parent="FTDDd-owseV0-7RKEGn8-1" vertex="1">
          <mxGeometry x="170" y="250" width="40" height="20" as="geometry"/>
        </mxCell>
        <mxCell id="Srz_F0b2qAnOa-qPsFeJ-3" value="&lt;div&gt;Daniel&lt;/div&gt;" style="rounded=1;whiteSpace=wrap;html=1;fillColor=#ffff88;strokeColor=#36393d;" parent="FTDDd-owseV0-7RKEGn8-1" vertex="1">
          <mxGeometry x="290" y="120" width="40" height="20" as="geometry"/>
        </mxCell>
        <mxCell id="B_I8aT1JAoUhAAaeeT8g-8" value="Daniel" style="rounded=1;whiteSpace=wrap;html=1;fillColor=#ffff88;strokeColor=#36393d;" parent="FTDDd-owseV0-7RKEGn8-1" vertex="1">
          <mxGeometry x="540" y="250" width="40" height="20" as="geometry"/>
        </mxCell>
        <mxCell id="B_I8aT1JAoUhAAaeeT8g-36" value="Daniel" style="rounded=1;whiteSpace=wrap;html=1;fillColor=#ffff88;strokeColor=#36393d;" parent="FTDDd-owseV0-7RKEGn8-1" vertex="1">
          <mxGeometry x="650" y="140" width="40" height="20" as="geometry"/>
        </mxCell>
        <mxCell id="B_I8aT1JAoUhAAaeeT8g-39" value="Daniel" style="rounded=1;whiteSpace=wrap;html=1;fillColor=#ffff88;strokeColor=#36393d;" parent="FTDDd-owseV0-7RKEGn8-1" vertex="1">
          <mxGeometry x="650" y="240" width="40" height="20" as="geometry"/>
        </mxCell>
        <mxCell id="B_I8aT1JAoUhAAaeeT8g-42" value="???" style="rounded=1;whiteSpace=wrap;html=1;fillColor=#ffff88;strokeColor=#36393d;" parent="FTDDd-owseV0-7RKEGn8-1" vertex="1">
          <mxGeometry x="650" y="355" width="40" height="20" as="geometry"/>
        </mxCell>
        <mxCell id="B_I8aT1JAoUhAAaeeT8g-77" value="???" style="rounded=1;whiteSpace=wrap;html=1;fillColor=#ffff88;strokeColor=#36393d;" parent="FTDDd-owseV0-7RKEGn8-1" vertex="1">
          <mxGeometry x="969" y="140" width="42" height="20" as="geometry"/>
        </mxCell>
        <mxCell id="B_I8aT1JAoUhAAaeeT8g-81" value="???" style="rounded=1;whiteSpace=wrap;html=1;fillColor=#ffff88;strokeColor=#36393d;" parent="FTDDd-owseV0-7RKEGn8-1" vertex="1">
          <mxGeometry x="830" y="110" width="42" height="20" as="geometry"/>
        </mxCell>
        <mxCell id="B_I8aT1JAoUhAAaeeT8g-101" value="???" style="rounded=1;whiteSpace=wrap;html=1;fillColor=#ffff88;strokeColor=#36393d;" parent="FTDDd-owseV0-7RKEGn8-1" vertex="1">
          <mxGeometry x="1160" y="210" width="42" height="20" as="geometry"/>
        </mxCell>
        <mxCell id="B_I8aT1JAoUhAAaeeT8g-103" value="???" style="rounded=1;whiteSpace=wrap;html=1;fillColor=#ffff88;strokeColor=#36393d;" parent="FTDDd-owseV0-7RKEGn8-1" vertex="1">
          <mxGeometry x="1160" y="250" width="42" height="20" as="geometry"/>
        </mxCell>
        <mxCell id="B_I8aT1JAoUhAAaeeT8g-104" value="???" style="rounded=1;whiteSpace=wrap;html=1;fillColor=#ffff88;strokeColor=#36393d;" parent="FTDDd-owseV0-7RKEGn8-1" vertex="1">
          <mxGeometry x="1160" y="290" width="42" height="20" as="geometry"/>
        </mxCell>
        <mxCell id="B_I8aT1JAoUhAAaeeT8g-105" value="???" style="rounded=1;whiteSpace=wrap;html=1;fillColor=#ffff88;strokeColor=#36393d;" parent="FTDDd-owseV0-7RKEGn8-1" vertex="1">
          <mxGeometry x="1160" y="330" width="42" height="20" as="geometry"/>
        </mxCell>
        <mxCell id="B_I8aT1JAoUhAAaeeT8g-111" value="???" style="rounded=1;whiteSpace=wrap;html=1;fillColor=#ffff88;strokeColor=#36393d;" parent="FTDDd-owseV0-7RKEGn8-1" vertex="1">
          <mxGeometry x="950" y="240" width="42" height="20" as="geometry"/>
        </mxCell>
        <mxCell id="B_I8aT1JAoUhAAaeeT8g-112" value="???" style="rounded=1;whiteSpace=wrap;html=1;fillColor=#ffff88;strokeColor=#36393d;" parent="FTDDd-owseV0-7RKEGn8-1" vertex="1">
          <mxGeometry x="1540" y="140" width="41" height="20" as="geometry"/>
        </mxCell>
        <mxCell id="B_I8aT1JAoUhAAaeeT8g-126" value="???" style="rounded=1;whiteSpace=wrap;html=1;fillColor=#ffff88;strokeColor=#36393d;" parent="FTDDd-owseV0-7RKEGn8-1" vertex="1">
          <mxGeometry x="1380" y="140" width="42" height="20" as="geometry"/>
        </mxCell>
        <mxCell id="B_I8aT1JAoUhAAaeeT8g-132" value="???" style="rounded=1;whiteSpace=wrap;html=1;fillColor=#cce5ff;strokeColor=#36393d;" parent="FTDDd-owseV0-7RKEGn8-1" vertex="1">
          <mxGeometry x="1380" y="220" width="42" height="20" as="geometry"/>
        </mxCell>
        <mxCell id="B_I8aT1JAoUhAAaeeT8g-142" value="???" style="rounded=1;whiteSpace=wrap;html=1;fillColor=#cce5ff;strokeColor=#36393d;" parent="FTDDd-owseV0-7RKEGn8-1" vertex="1">
          <mxGeometry x="1779" y="150" width="41" height="20" as="geometry"/>
        </mxCell>
        <mxCell id="wF4mP8w9-cqMa2zVFERf-8" value="Sven" style="rounded=1;whiteSpace=wrap;html=1;fillColor=#cce5ff;strokeColor=#36393d;" parent="FTDDd-owseV0-7RKEGn8-1" vertex="1">
          <mxGeometry x="420" y="370" width="40" height="20" as="geometry"/>
        </mxCell>
        <mxCell id="wF4mP8w9-cqMa2zVFERf-32" value="???" style="rounded=1;whiteSpace=wrap;html=1;fillColor=#cce5ff;strokeColor=#36393d;" parent="FTDDd-owseV0-7RKEGn8-1" vertex="1">
          <mxGeometry x="2070" y="140" width="41" height="20" as="geometry"/>
        </mxCell>
        <mxCell id="wF4mP8w9-cqMa2zVFERf-36" value="???" style="rounded=1;whiteSpace=wrap;html=1;fillColor=#cce5ff;strokeColor=#36393d;" parent="FTDDd-owseV0-7RKEGn8-1" vertex="1">
          <mxGeometry x="2070" y="230" width="41" height="20" as="geometry"/>
        </mxCell>
        <mxCell id="wF4mP8w9-cqMa2zVFERf-47" value="???" style="rounded=1;whiteSpace=wrap;html=1;fillColor=#cce5ff;strokeColor=#36393d;" parent="FTDDd-owseV0-7RKEGn8-1" vertex="1">
          <mxGeometry x="2250" y="140" width="41" height="20" as="geometry"/>
        </mxCell>
        <mxCell id="wF4mP8w9-cqMa2zVFERf-56" value="???" style="rounded=1;whiteSpace=wrap;html=1;fillColor=#cce5ff;strokeColor=#36393d;" parent="FTDDd-owseV0-7RKEGn8-1" vertex="1">
          <mxGeometry x="2430" y="190" width="41" height="20" as="geometry"/>
        </mxCell>
        <mxCell id="wF4mP8w9-cqMa2zVFERf-60" value="???" style="rounded=1;whiteSpace=wrap;html=1;fillColor=#cce5ff;strokeColor=#36393d;" parent="FTDDd-owseV0-7RKEGn8-1" vertex="1">
          <mxGeometry x="2620" y="140" width="41" height="20" as="geometry"/>
        </mxCell>
        <mxCell id="wF4mP8w9-cqMa2zVFERf-68" value="???" style="rounded=1;whiteSpace=wrap;html=1;fillColor=#ffff88;strokeColor=#36393d;" parent="FTDDd-owseV0-7RKEGn8-1" vertex="1">
          <mxGeometry x="2800" y="392.5" width="41" height="20" as="geometry"/>
        </mxCell>
        <mxCell id="wF4mP8w9-cqMa2zVFERf-73" value="???" style="rounded=1;whiteSpace=wrap;html=1;fillColor=#cce5ff;strokeColor=#36393d;" parent="FTDDd-owseV0-7RKEGn8-1" vertex="1">
          <mxGeometry x="1659.5" y="170" width="41" height="20" as="geometry"/>
        </mxCell>
        <mxCell id="IUjpNbBkHvmJUEdH-6QP-2" value="???" style="rounded=1;whiteSpace=wrap;html=1;fillColor=#ffff88;strokeColor=#36393d;" parent="FTDDd-owseV0-7RKEGn8-1" vertex="1">
          <mxGeometry x="1040" y="407.5" width="42" height="20" as="geometry"/>
        </mxCell>
        <mxCell id="In2b0w2_5TZYF9G1gsUI-48" value="???" style="rounded=1;whiteSpace=wrap;html=1;fillColor=#ffff88;strokeColor=#36393d;" vertex="1" parent="FTDDd-owseV0-7RKEGn8-1">
          <mxGeometry x="1290" y="370" width="41" height="20" as="geometry"/>
        </mxCell>
        <mxCell id="In2b0w2_5TZYF9G1gsUI-49" value="???" style="rounded=1;whiteSpace=wrap;html=1;fillColor=#ffff88;strokeColor=#36393d;" vertex="1" parent="FTDDd-owseV0-7RKEGn8-1">
          <mxGeometry x="1290" y="490" width="41" height="20" as="geometry"/>
        </mxCell>
        <mxCell id="In2b0w2_5TZYF9G1gsUI-91" value="???" style="rounded=1;whiteSpace=wrap;html=1;fillColor=#ffff88;strokeColor=#36393d;" vertex="1" parent="FTDDd-owseV0-7RKEGn8-1">
          <mxGeometry x="3030" y="402.5" width="41" height="20" as="geometry"/>
        </mxCell>
        <mxCell id="In2b0w2_5TZYF9G1gsUI-92" value="???" style="rounded=1;whiteSpace=wrap;html=1;fillColor=#ffff88;strokeColor=#36393d;" vertex="1" parent="FTDDd-owseV0-7RKEGn8-1">
          <mxGeometry x="2989" y="490" width="41" height="20" as="geometry"/>
        </mxCell>
        <mxCell id="In2b0w2_5TZYF9G1gsUI-93" value="???" style="rounded=1;whiteSpace=wrap;html=1;fillColor=#ffff88;strokeColor=#36393d;" vertex="1" parent="FTDDd-owseV0-7RKEGn8-1">
          <mxGeometry x="2910" y="570" width="41" height="20" as="geometry"/>
        </mxCell>
        <mxCell id="In2b0w2_5TZYF9G1gsUI-94" value="???" style="rounded=1;whiteSpace=wrap;html=1;fillColor=#ffff88;strokeColor=#36393d;" vertex="1" parent="FTDDd-owseV0-7RKEGn8-1">
          <mxGeometry x="2750" y="590" width="41" height="20" as="geometry"/>
        </mxCell>
        <mxCell id="In2b0w2_5TZYF9G1gsUI-95" value="???" style="rounded=1;whiteSpace=wrap;html=1;fillColor=#ffff88;strokeColor=#36393d;" vertex="1" parent="FTDDd-owseV0-7RKEGn8-1">
          <mxGeometry x="2540" y="570" width="41" height="20" as="geometry"/>
        </mxCell>
        <mxCell id="In2b0w2_5TZYF9G1gsUI-96" value="???" style="rounded=1;whiteSpace=wrap;html=1;fillColor=#ffff88;strokeColor=#36393d;" vertex="1" parent="FTDDd-owseV0-7RKEGn8-1">
          <mxGeometry x="2440" y="500" width="41" height="20" as="geometry"/>
        </mxCell>
        <mxCell id="In2b0w2_5TZYF9G1gsUI-97" value="???" style="rounded=1;whiteSpace=wrap;html=1;fillColor=#ffff88;strokeColor=#36393d;" vertex="1" parent="FTDDd-owseV0-7RKEGn8-1">
          <mxGeometry x="2409.5" y="402.5" width="41" height="20" as="geometry"/>
        </mxCell>
        <mxCell id="In2b0w2_5TZYF9G1gsUI-98" value="???" style="rounded=1;whiteSpace=wrap;html=1;fillColor=#ffff88;strokeColor=#36393d;" vertex="1" parent="FTDDd-owseV0-7RKEGn8-1">
          <mxGeometry x="2481" y="320" width="41" height="20" as="geometry"/>
        </mxCell>
        <mxCell id="In2b0w2_5TZYF9G1gsUI-116" value="???" style="rounded=1;whiteSpace=wrap;html=1;fillColor=#ffff88;strokeColor=#36393d;" vertex="1" parent="FTDDd-owseV0-7RKEGn8-1">
          <mxGeometry x="3210" y="150" width="41" height="20" as="geometry"/>
        </mxCell>
        <mxCell id="In2b0w2_5TZYF9G1gsUI-119" value="???" style="rounded=1;whiteSpace=wrap;html=1;fillColor=#ffff88;strokeColor=#36393d;" vertex="1" parent="FTDDd-owseV0-7RKEGn8-1">
          <mxGeometry x="3740" y="150" width="41" height="20" as="geometry"/>
        </mxCell>
        <mxCell id="In2b0w2_5TZYF9G1gsUI-127" value="???" style="rounded=1;whiteSpace=wrap;html=1;fillColor=#ffff88;strokeColor=#36393d;arcSize=0;" vertex="1" parent="FTDDd-owseV0-7RKEGn8-1">
          <mxGeometry x="3900" y="200" width="41" height="20" as="geometry"/>
        </mxCell>
        <mxCell id="In2b0w2_5TZYF9G1gsUI-134" value="???" style="rounded=1;whiteSpace=wrap;html=1;fillColor=#ffff88;strokeColor=#36393d;" vertex="1" parent="FTDDd-owseV0-7RKEGn8-1">
          <mxGeometry x="940" y="920" width="42" height="20" as="geometry"/>
        </mxCell>
        <mxCell id="In2b0w2_5TZYF9G1gsUI-136" value="???" style="rounded=1;whiteSpace=wrap;html=1;fillColor=#ffff88;strokeColor=#36393d;" vertex="1" parent="FTDDd-owseV0-7RKEGn8-1">
          <mxGeometry x="940" y="820" width="42" height="20" as="geometry"/>
        </mxCell>
        <mxCell id="In2b0w2_5TZYF9G1gsUI-145" value="???" style="rounded=1;whiteSpace=wrap;html=1;fillColor=#ffff88;strokeColor=#36393d;" vertex="1" parent="FTDDd-owseV0-7RKEGn8-1">
          <mxGeometry x="3730" y="270" width="41" height="20" as="geometry"/>
        </mxCell>
        <mxCell id="In2b0w2_5TZYF9G1gsUI-149" value="???" style="rounded=1;whiteSpace=wrap;html=1;fillColor=#ffff88;strokeColor=#36393d;" vertex="1" parent="FTDDd-owseV0-7RKEGn8-1">
          <mxGeometry x="418" y="810" width="42" height="20" as="geometry"/>
        </mxCell>
        <mxCell id="In2b0w2_5TZYF9G1gsUI-164" value="???" style="rounded=1;whiteSpace=wrap;html=1;fillColor=#ffff88;strokeColor=#36393d;" vertex="1" parent="FTDDd-owseV0-7RKEGn8-1">
          <mxGeometry x="590" y="850" width="42" height="20" as="geometry"/>
        </mxCell>
        <mxCell id="In2b0w2_5TZYF9G1gsUI-165" value="???" style="rounded=1;whiteSpace=wrap;html=1;fillColor=#ffff88;strokeColor=#36393d;" vertex="1" parent="FTDDd-owseV0-7RKEGn8-1">
          <mxGeometry x="590" y="930" width="42" height="20" as="geometry"/>
        </mxCell>
        <mxCell id="In2b0w2_5TZYF9G1gsUI-166" value="???" style="rounded=1;whiteSpace=wrap;html=1;fillColor=#ffff88;strokeColor=#36393d;" vertex="1" parent="FTDDd-owseV0-7RKEGn8-1">
          <mxGeometry x="590" y="1010" width="42" height="20" as="geometry"/>
        </mxCell>
        <mxCell id="In2b0w2_5TZYF9G1gsUI-167" value="???" style="rounded=1;whiteSpace=wrap;html=1;fillColor=#ffff88;strokeColor=#36393d;" vertex="1" parent="FTDDd-owseV0-7RKEGn8-1">
          <mxGeometry x="590" y="1100" width="42" height="20" as="geometry"/>
        </mxCell>
        <mxCell id="In2b0w2_5TZYF9G1gsUI-168" value="???" style="rounded=1;whiteSpace=wrap;html=1;fillColor=#ffff88;strokeColor=#36393d;" vertex="1" parent="FTDDd-owseV0-7RKEGn8-1">
          <mxGeometry x="590" y="1180" width="42" height="20" as="geometry"/>
        </mxCell>
        <mxCell id="In2b0w2_5TZYF9G1gsUI-169" value="???" style="rounded=1;whiteSpace=wrap;html=1;fillColor=#ffff88;strokeColor=#36393d;" vertex="1" parent="FTDDd-owseV0-7RKEGn8-1">
          <mxGeometry x="590" y="1260" width="42" height="20" as="geometry"/>
        </mxCell>
        <mxCell id="B_I8aT1JAoUhAAaeeT8g-41" value="Courseware IDs" parent="0"/>
        <mxCell id="B_I8aT1JAoUhAAaeeT8g-44" value="34361" style="text;html=1;strokeColor=none;fillColor=none;align=center;verticalAlign=middle;whiteSpace=wrap;rounded=0;" parent="B_I8aT1JAoUhAAaeeT8g-41" vertex="1">
          <mxGeometry x="290" y="100" width="40" height="20" as="geometry"/>
        </mxCell>
        <mxCell id="B_I8aT1JAoUhAAaeeT8g-46" value="34748" style="text;html=1;strokeColor=none;fillColor=none;align=center;verticalAlign=middle;whiteSpace=wrap;rounded=0;" parent="B_I8aT1JAoUhAAaeeT8g-41" vertex="1">
          <mxGeometry x="170" y="270" width="40" height="20" as="geometry"/>
        </mxCell>
        <mxCell id="B_I8aT1JAoUhAAaeeT8g-47" value="34368" style="text;html=1;strokeColor=none;fillColor=none;align=center;verticalAlign=middle;whiteSpace=wrap;rounded=0;" parent="B_I8aT1JAoUhAAaeeT8g-41" vertex="1">
          <mxGeometry x="540" y="160" width="40" height="20" as="geometry"/>
        </mxCell>
        <mxCell id="B_I8aT1JAoUhAAaeeT8g-48" value="34929" style="text;html=1;strokeColor=none;fillColor=none;align=center;verticalAlign=middle;whiteSpace=wrap;rounded=0;" parent="B_I8aT1JAoUhAAaeeT8g-41" vertex="1">
          <mxGeometry x="540" y="270" width="40" height="20" as="geometry"/>
        </mxCell>
        <mxCell id="B_I8aT1JAoUhAAaeeT8g-49" value="34989" style="text;html=1;strokeColor=none;fillColor=none;align=center;verticalAlign=middle;whiteSpace=wrap;rounded=0;" parent="B_I8aT1JAoUhAAaeeT8g-41" vertex="1">
          <mxGeometry x="650" y="160" width="40" height="20" as="geometry"/>
        </mxCell>
        <mxCell id="B_I8aT1JAoUhAAaeeT8g-50" value="34937" style="text;html=1;strokeColor=none;fillColor=none;align=center;verticalAlign=middle;whiteSpace=wrap;rounded=0;" parent="B_I8aT1JAoUhAAaeeT8g-41" vertex="1">
          <mxGeometry x="650" y="260" width="40" height="20" as="geometry"/>
        </mxCell>
        <mxCell id="B_I8aT1JAoUhAAaeeT8g-51" style="edgeStyle=none;rounded=0;orthogonalLoop=1;jettySize=auto;html=1;exitX=0.5;exitY=1;exitDx=0;exitDy=0;" parent="B_I8aT1JAoUhAAaeeT8g-41" source="B_I8aT1JAoUhAAaeeT8g-50" target="B_I8aT1JAoUhAAaeeT8g-50" edge="1">
          <mxGeometry relative="1" as="geometry"/>
        </mxCell>
        <mxCell id="B_I8aT1JAoUhAAaeeT8g-84" value="34754" style="text;html=1;strokeColor=none;fillColor=none;align=center;verticalAlign=middle;whiteSpace=wrap;rounded=0;" parent="B_I8aT1JAoUhAAaeeT8g-41" vertex="1">
          <mxGeometry x="830" y="90" width="40" height="20" as="geometry"/>
        </mxCell>
        <mxCell id="B_I8aT1JAoUhAAaeeT8g-87" value="35801" style="text;html=1;strokeColor=none;fillColor=none;align=center;verticalAlign=middle;whiteSpace=wrap;rounded=0;" parent="B_I8aT1JAoUhAAaeeT8g-41" vertex="1">
          <mxGeometry x="970" y="160" width="40" height="20" as="geometry"/>
        </mxCell>
        <mxCell id="B_I8aT1JAoUhAAaeeT8g-89" value="35803" style="text;html=1;strokeColor=none;fillColor=none;align=center;verticalAlign=middle;whiteSpace=wrap;rounded=0;" parent="B_I8aT1JAoUhAAaeeT8g-41" vertex="1">
          <mxGeometry x="650" y="380" width="40" height="20" as="geometry"/>
        </mxCell>
        <mxCell id="B_I8aT1JAoUhAAaeeT8g-113" value="35005" style="text;html=1;strokeColor=none;fillColor=none;align=center;verticalAlign=middle;whiteSpace=wrap;rounded=0;" parent="B_I8aT1JAoUhAAaeeT8g-41" vertex="1">
          <mxGeometry x="950" y="260" width="40" height="20" as="geometry"/>
        </mxCell>
        <mxCell id="B_I8aT1JAoUhAAaeeT8g-114" value="35808" style="text;html=1;strokeColor=none;fillColor=none;align=center;verticalAlign=middle;whiteSpace=wrap;rounded=0;" parent="B_I8aT1JAoUhAAaeeT8g-41" vertex="1">
          <mxGeometry x="1200" y="330" width="40" height="20" as="geometry"/>
        </mxCell>
        <mxCell id="B_I8aT1JAoUhAAaeeT8g-115" value="35807" style="text;html=1;strokeColor=none;fillColor=none;align=center;verticalAlign=middle;whiteSpace=wrap;rounded=0;" parent="B_I8aT1JAoUhAAaeeT8g-41" vertex="1">
          <mxGeometry x="1200" y="290" width="40" height="20" as="geometry"/>
        </mxCell>
        <mxCell id="B_I8aT1JAoUhAAaeeT8g-116" value="35806" style="text;html=1;strokeColor=none;fillColor=none;align=center;verticalAlign=middle;whiteSpace=wrap;rounded=0;" parent="B_I8aT1JAoUhAAaeeT8g-41" vertex="1">
          <mxGeometry x="1200" y="250" width="40" height="20" as="geometry"/>
        </mxCell>
        <mxCell id="B_I8aT1JAoUhAAaeeT8g-117" value="35805&lt;br&gt;" style="text;html=1;strokeColor=none;fillColor=none;align=center;verticalAlign=middle;whiteSpace=wrap;rounded=0;" parent="B_I8aT1JAoUhAAaeeT8g-41" vertex="1">
          <mxGeometry x="1200" y="210" width="40" height="20" as="geometry"/>
        </mxCell>
        <mxCell id="B_I8aT1JAoUhAAaeeT8g-127" value="35809" style="text;html=1;strokeColor=none;fillColor=none;align=center;verticalAlign=middle;whiteSpace=wrap;rounded=0;" parent="B_I8aT1JAoUhAAaeeT8g-41" vertex="1">
          <mxGeometry x="1380" y="160" width="40" height="20" as="geometry"/>
        </mxCell>
        <mxCell id="B_I8aT1JAoUhAAaeeT8g-133" value="?????" style="text;html=1;strokeColor=none;fillColor=none;align=center;verticalAlign=middle;whiteSpace=wrap;rounded=0;" parent="B_I8aT1JAoUhAAaeeT8g-41" vertex="1">
          <mxGeometry x="1390" y="240" width="40" height="20" as="geometry"/>
        </mxCell>
        <mxCell id="B_I8aT1JAoUhAAaeeT8g-140" value="35028" style="text;html=1;strokeColor=none;fillColor=none;align=center;verticalAlign=middle;whiteSpace=wrap;rounded=0;" parent="B_I8aT1JAoUhAAaeeT8g-41" vertex="1">
          <mxGeometry x="1560.1666666666667" y="160" width="40" height="20" as="geometry"/>
        </mxCell>
        <mxCell id="B_I8aT1JAoUhAAaeeT8g-144" value="?????" style="text;html=1;strokeColor=none;fillColor=none;align=center;verticalAlign=middle;whiteSpace=wrap;rounded=0;" parent="B_I8aT1JAoUhAAaeeT8g-41" vertex="1">
          <mxGeometry x="1780.6666666666667" y="170" width="40" height="20" as="geometry"/>
        </mxCell>
        <mxCell id="B_I8aT1JAoUhAAaeeT8g-149" style="edgeStyle=orthogonalEdgeStyle;rounded=0;orthogonalLoop=1;jettySize=auto;html=1;startArrow=none;startFill=0;" parent="B_I8aT1JAoUhAAaeeT8g-41" source="B_I8aT1JAoUhAAaeeT8g-141" target="B_I8aT1JAoUhAAaeeT8g-94" edge="1">
          <mxGeometry relative="1" as="geometry">
            <Array as="points">
              <mxPoint x="1840" y="310"/>
            </Array>
          </mxGeometry>
        </mxCell>
        <mxCell id="IUjpNbBkHvmJUEdH-6QP-3" value="35825" style="text;html=1;strokeColor=none;fillColor=none;align=center;verticalAlign=middle;whiteSpace=wrap;rounded=0;" parent="B_I8aT1JAoUhAAaeeT8g-41" vertex="1">
          <mxGeometry x="1050" y="430" width="40" height="20" as="geometry"/>
        </mxCell>
        <mxCell id="In2b0w2_5TZYF9G1gsUI-8" value="36642" style="text;html=1;strokeColor=none;fillColor=none;align=center;verticalAlign=middle;whiteSpace=wrap;rounded=0;" vertex="1" parent="B_I8aT1JAoUhAAaeeT8g-41">
          <mxGeometry x="1330" y="390" width="40" height="20" as="geometry"/>
        </mxCell>
        <mxCell id="In2b0w2_5TZYF9G1gsUI-11" value="36644" style="text;html=1;strokeColor=none;fillColor=none;align=center;verticalAlign=middle;whiteSpace=wrap;rounded=0;" vertex="1" parent="B_I8aT1JAoUhAAaeeT8g-41">
          <mxGeometry x="1330" y="470" width="40" height="20" as="geometry"/>
        </mxCell>
        <mxCell id="In2b0w2_5TZYF9G1gsUI-42" style="edgeStyle=none;rounded=0;orthogonalLoop=1;jettySize=auto;html=1;exitX=0.25;exitY=1;exitDx=0;exitDy=0;entryX=0;entryY=0.75;entryDx=0;entryDy=0;" edge="1" parent="B_I8aT1JAoUhAAaeeT8g-41" source="B_I8aT1JAoUhAAaeeT8g-140" target="B_I8aT1JAoUhAAaeeT8g-140">
          <mxGeometry relative="1" as="geometry"/>
        </mxCell>
        <mxCell id="In2b0w2_5TZYF9G1gsUI-50" value="?????" style="text;html=1;strokeColor=none;fillColor=none;align=center;verticalAlign=middle;whiteSpace=wrap;rounded=0;" vertex="1" parent="B_I8aT1JAoUhAAaeeT8g-41">
          <mxGeometry x="1710" y="180" width="40" height="20" as="geometry"/>
        </mxCell>
        <mxCell id="In2b0w2_5TZYF9G1gsUI-99" value="36769" style="text;html=1;strokeColor=none;fillColor=none;align=center;verticalAlign=middle;whiteSpace=wrap;rounded=0;" vertex="1" parent="B_I8aT1JAoUhAAaeeT8g-41">
          <mxGeometry x="2800.166666666667" y="370" width="40" height="20" as="geometry"/>
        </mxCell>
        <mxCell id="In2b0w2_5TZYF9G1gsUI-100" value="36937" style="text;html=1;strokeColor=none;fillColor=none;align=center;verticalAlign=middle;whiteSpace=wrap;rounded=0;" vertex="1" parent="B_I8aT1JAoUhAAaeeT8g-41">
          <mxGeometry x="3030.166666666667" y="380" width="40" height="20" as="geometry"/>
        </mxCell>
        <mxCell id="In2b0w2_5TZYF9G1gsUI-101" value="36918" style="text;html=1;strokeColor=none;fillColor=none;align=center;verticalAlign=middle;whiteSpace=wrap;rounded=0;" vertex="1" parent="B_I8aT1JAoUhAAaeeT8g-41">
          <mxGeometry x="3030.166666666667" y="490" width="40" height="20" as="geometry"/>
        </mxCell>
        <mxCell id="In2b0w2_5TZYF9G1gsUI-102" value="36912" style="text;html=1;strokeColor=none;fillColor=none;align=center;verticalAlign=middle;whiteSpace=wrap;rounded=0;" vertex="1" parent="B_I8aT1JAoUhAAaeeT8g-41">
          <mxGeometry x="2950.166666666667" y="570" width="40" height="20" as="geometry"/>
        </mxCell>
        <mxCell id="In2b0w2_5TZYF9G1gsUI-103" value="37319" style="text;html=1;strokeColor=none;fillColor=none;align=center;verticalAlign=middle;whiteSpace=wrap;rounded=0;" vertex="1" parent="B_I8aT1JAoUhAAaeeT8g-41">
          <mxGeometry x="2750.166666666667" y="610" width="40" height="20" as="geometry"/>
        </mxCell>
        <mxCell id="In2b0w2_5TZYF9G1gsUI-104" value="36909" style="text;html=1;strokeColor=none;fillColor=none;align=center;verticalAlign=middle;whiteSpace=wrap;rounded=0;" vertex="1" parent="B_I8aT1JAoUhAAaeeT8g-41">
          <mxGeometry x="2540.166666666667" y="590" width="40" height="20" as="geometry"/>
        </mxCell>
        <mxCell id="In2b0w2_5TZYF9G1gsUI-105" value="36775" style="text;html=1;strokeColor=none;fillColor=none;align=center;verticalAlign=middle;whiteSpace=wrap;rounded=0;" vertex="1" parent="B_I8aT1JAoUhAAaeeT8g-41">
          <mxGeometry x="2440.166666666667" y="520" width="40" height="20" as="geometry"/>
        </mxCell>
        <mxCell id="In2b0w2_5TZYF9G1gsUI-106" value="37321" style="text;html=1;strokeColor=none;fillColor=none;align=center;verticalAlign=middle;whiteSpace=wrap;rounded=0;" vertex="1" parent="B_I8aT1JAoUhAAaeeT8g-41">
          <mxGeometry x="2410.166666666667" y="420" width="40" height="20" as="geometry"/>
        </mxCell>
        <mxCell id="In2b0w2_5TZYF9G1gsUI-107" value="36773" style="text;html=1;strokeColor=none;fillColor=none;align=center;verticalAlign=middle;whiteSpace=wrap;rounded=0;" vertex="1" parent="B_I8aT1JAoUhAAaeeT8g-41">
          <mxGeometry x="2480.166666666667" y="340" width="40" height="20" as="geometry"/>
        </mxCell>
        <mxCell id="In2b0w2_5TZYF9G1gsUI-118" value="36915" style="text;html=1;strokeColor=none;fillColor=none;align=center;verticalAlign=middle;whiteSpace=wrap;rounded=0;" vertex="1" parent="B_I8aT1JAoUhAAaeeT8g-41">
          <mxGeometry x="3210.166666666667" y="130" width="40" height="20" as="geometry"/>
        </mxCell>
        <mxCell id="In2b0w2_5TZYF9G1gsUI-128" value="37480" style="text;html=1;strokeColor=none;fillColor=none;align=center;verticalAlign=middle;whiteSpace=wrap;rounded=0;" vertex="1" parent="B_I8aT1JAoUhAAaeeT8g-41">
          <mxGeometry x="3740.166666666667" y="130" width="40" height="20" as="geometry"/>
        </mxCell>
        <mxCell id="In2b0w2_5TZYF9G1gsUI-129" value="37266" style="text;html=1;strokeColor=none;fillColor=none;align=center;verticalAlign=middle;whiteSpace=wrap;rounded=0;" vertex="1" parent="B_I8aT1JAoUhAAaeeT8g-41">
          <mxGeometry x="3900.166666666667" y="180" width="40" height="20" as="geometry"/>
        </mxCell>
        <mxCell id="In2b0w2_5TZYF9G1gsUI-137" style="edgeStyle=none;rounded=0;orthogonalLoop=1;jettySize=auto;html=1;exitX=0.75;exitY=1;exitDx=0;exitDy=0;entryX=0.75;entryY=0.5;entryDx=0;entryDy=0;entryPerimeter=0;" edge="1" parent="B_I8aT1JAoUhAAaeeT8g-41" source="IUjpNbBkHvmJUEdH-6QP-3" target="IUjpNbBkHvmJUEdH-6QP-3">
          <mxGeometry relative="1" as="geometry"/>
        </mxCell>
        <mxCell id="In2b0w2_5TZYF9G1gsUI-138" value="37637" style="text;html=1;strokeColor=none;fillColor=none;align=center;verticalAlign=middle;whiteSpace=wrap;rounded=0;" vertex="1" parent="B_I8aT1JAoUhAAaeeT8g-41">
          <mxGeometry x="970" y="840" width="40" height="20" as="geometry"/>
        </mxCell>
        <mxCell id="In2b0w2_5TZYF9G1gsUI-139" value="37639" style="text;html=1;strokeColor=none;fillColor=none;align=center;verticalAlign=middle;whiteSpace=wrap;rounded=0;" vertex="1" parent="B_I8aT1JAoUhAAaeeT8g-41">
          <mxGeometry x="970" y="940" width="40" height="20" as="geometry"/>
        </mxCell>
        <mxCell id="In2b0w2_5TZYF9G1gsUI-146" value="37643" style="text;html=1;strokeColor=none;fillColor=none;align=center;verticalAlign=middle;whiteSpace=wrap;rounded=0;" vertex="1" parent="B_I8aT1JAoUhAAaeeT8g-41">
          <mxGeometry x="3730.166666666667" y="250" width="40" height="20" as="geometry"/>
        </mxCell>
        <mxCell id="In2b0w2_5TZYF9G1gsUI-150" value="37269" style="text;html=1;strokeColor=none;fillColor=none;align=center;verticalAlign=middle;whiteSpace=wrap;rounded=0;" vertex="1" parent="B_I8aT1JAoUhAAaeeT8g-41">
          <mxGeometry x="420" y="790" width="40" height="20" as="geometry"/>
        </mxCell>
        <mxCell id="In2b0w2_5TZYF9G1gsUI-170" value="37658" style="text;html=1;strokeColor=none;fillColor=none;align=center;verticalAlign=middle;whiteSpace=wrap;rounded=0;" vertex="1" parent="B_I8aT1JAoUhAAaeeT8g-41">
          <mxGeometry x="590" y="870" width="40" height="20" as="geometry"/>
        </mxCell>
        <mxCell id="In2b0w2_5TZYF9G1gsUI-171" value="37664" style="text;html=1;strokeColor=none;fillColor=none;align=center;verticalAlign=middle;whiteSpace=wrap;rounded=0;" vertex="1" parent="B_I8aT1JAoUhAAaeeT8g-41">
          <mxGeometry x="590" y="950" width="40" height="20" as="geometry"/>
        </mxCell>
        <mxCell id="In2b0w2_5TZYF9G1gsUI-172" value="37666" style="text;html=1;strokeColor=none;fillColor=none;align=center;verticalAlign=middle;whiteSpace=wrap;rounded=0;" vertex="1" parent="B_I8aT1JAoUhAAaeeT8g-41">
          <mxGeometry x="590" y="1030" width="40" height="20" as="geometry"/>
        </mxCell>
        <mxCell id="In2b0w2_5TZYF9G1gsUI-173" value="37668" style="text;html=1;strokeColor=none;fillColor=none;align=center;verticalAlign=middle;whiteSpace=wrap;rounded=0;" vertex="1" parent="B_I8aT1JAoUhAAaeeT8g-41">
          <mxGeometry x="590" y="1120" width="40" height="20" as="geometry"/>
        </mxCell>
        <mxCell id="In2b0w2_5TZYF9G1gsUI-174" value="37671" style="text;html=1;strokeColor=none;fillColor=none;align=center;verticalAlign=middle;whiteSpace=wrap;rounded=0;" vertex="1" parent="B_I8aT1JAoUhAAaeeT8g-41">
          <mxGeometry x="590" y="1200" width="40" height="20" as="geometry"/>
        </mxCell>
        <mxCell id="In2b0w2_5TZYF9G1gsUI-175" value="37673" style="text;html=1;strokeColor=none;fillColor=none;align=center;verticalAlign=middle;whiteSpace=wrap;rounded=0;" vertex="1" parent="B_I8aT1JAoUhAAaeeT8g-41">
          <mxGeometry x="590" y="1280" width="40" height="20" as="geometry"/>
        </mxCell>
      </root>
    </mxGraphModel>
  </diagram>
</mxfile>
